<svg xmlns="http://www.w3.org/2000/svg" width="512" height="512" viewBox="0 0 512 512" version="1.1">
	<path d="M 214.500 4.701 C 175.801 8.233, 129.154 29.697, 91 61.527 C 80.839 70.004, 62.871 88.631, 54.853 99 C 34.328 125.541, 17.502 162.170, 10.360 195.855 C 7.640 208.681, 6.313 224.524, 7.450 230.586 L 8.183 234.492 9.993 232.257 C 12.477 229.189, 17.387 215.336, 22.134 198 C 30.960 165.763, 41.716 140.184, 54.722 120.500 C 79.449 83.076, 116.451 52.546, 160.351 33.347 C 184.254 22.892, 216.510 16.020, 241.750 16.003 L 247 16 247 10 L 247 4 232.750 4.168 C 224.912 4.261, 216.700 4.500, 214.500 4.701 M 265.344 5.454 C 265.705 6.394, 266 9.152, 266 11.582 L 266 16 272.894 16 C 305.372 16, 339.636 25.423, 372.500 43.393 C 404.183 60.717, 435.162 89.063, 454.222 118.169 C 467.604 138.603, 474.726 154.814, 487.984 195.009 C 493.337 211.239, 498.866 226.764, 500.271 229.509 L 502.826 234.500 504.016 231.500 C 506.730 224.658, 503.098 199.618, 496.334 178.542 C 485.964 146.232, 470.547 116.849, 451.708 93.495 C 437.755 76.197, 410.074 51.719, 388.052 37.205 C 374.998 28.601, 352.957 17.872, 338.500 13.084 C 318.318 6.400, 309.236 4.889, 285.594 4.282 C 266.159 3.783, 264.734 3.865, 265.344 5.454 M 229.500 31.882 C 209.859 35.493, 195.107 40.550, 176.947 49.897 L 165.644 55.715 159.667 53.286 C 146.166 47.801, 134.020 49.395, 125.157 57.816 C 116.808 65.748, 115.530 69.256, 115.322 84.818 L 115.145 98.136 107.131 106.484 C 88.515 125.875, 74.172 149.840, 64.093 178.395 C 54.648 205.155, 50.895 232.679, 52.977 259.906 C 58.365 330.348, 96.424 393.130, 156.500 430.678 C 166.301 436.803, 210.856 460.613, 249.237 480.235 L 257.974 484.702 261.237 482.496 C 268.660 477.477, 292.172 464.338, 318 450.777 C 348.649 434.684, 358.117 429.062, 371.410 419.061 C 408.855 390.889, 433.078 357.096, 448.012 312.194 C 457.051 285.018, 460.257 260.319, 458.143 234.160 C 454.118 184.370, 434.778 139.348, 402.202 103.936 L 396.164 97.372 396.706 89.436 C 397.887 72.143, 390.769 58.597, 377.173 52.264 C 370.133 48.985, 361.153 49.351, 352.685 53.263 L 346.870 55.949 334.185 49.602 C 318.485 41.746, 304.701 36.540, 291.008 33.297 C 276.373 29.830, 244.629 29.100, 229.500 31.882 M 238 47.148 C 221.311 48.881, 201.031 54.984, 184.617 63.213 C 179.494 65.782, 178.920 66.349, 180.176 67.605 C 181.432 68.860, 182.621 68.583, 189.394 65.454 C 199.556 60.758, 215.585 55.544, 226.654 53.334 C 240.426 50.583, 273.017 50.849, 286.773 53.825 C 300.905 56.882, 311.804 60.441, 322.931 65.632 C 330.063 68.960, 332.555 69.724, 333.155 68.766 C 334.250 67.017, 331.577 65.179, 321.223 60.558 C 302.654 52.272, 288.607 48.609, 269.236 47.004 C 255.756 45.887, 249.887 45.914, 238 47.148 M 129.802 76.769 C 126.465 84.804, 130.097 113.520, 137.096 134.436 C 142.519 150.641, 146.081 156.173, 159.997 170 C 174.198 184.111, 176.710 188.583, 177.692 201.500 C 178.361 210.310, 176.566 215.710, 168.058 230.479 C 164.658 236.381, 162.017 241.343, 162.188 241.505 C 162.360 241.668, 164.522 242.197, 166.994 242.681 L 171.488 243.561 170.994 247.530 C 170.081 254.872, 170.796 268.656, 172.426 275.103 C 175.404 286.891, 185.365 304.591, 192.814 311.332 C 194.801 313.130, 194.841 313.081, 195.979 307.326 C 196.612 304.122, 198.734 294.988, 200.693 287.029 C 203.755 274.593, 204.175 271.501, 203.680 265.029 C 202.933 255.264, 201.651 251.094, 197.969 246.461 C 196.292 244.350, 193.812 238.982, 192.353 234.304 C 190.194 227.378, 189.825 224.621, 190.226 218.385 C 190.695 211.077, 190.644 210.863, 188.605 211.502 C 181.765 213.645, 181.335 213.278, 185.812 209.121 C 188.184 206.919, 192.181 204.332, 194.695 203.372 C 199.106 201.688, 199.391 201.694, 202.844 203.563 C 209.778 207.316, 213.990 214.979, 220.671 236 C 223.324 244.347, 223.380 245.066, 223.764 275.992 C 223.979 293.313, 223.844 309.513, 223.466 311.992 L 222.777 316.500 220.533 311.450 C 218.016 305.783, 212.507 299, 210.422 299 C 207.881 299, 205.663 305.216, 205.246 313.500 C 204.854 321.304, 204.953 321.720, 209.294 330.500 C 215.929 343.919, 223.754 357.114, 227.086 360.500 C 229.969 363.430, 230.298 363.508, 241.269 363.825 C 247.446 364.004, 253.850 364.117, 255.500 364.075 C 257.150 364.034, 263.225 363.879, 269 363.730 C 274.805 363.581, 280.454 362.922, 281.633 362.257 C 284.177 360.823, 298.032 339.293, 302.353 330.060 C 307.029 320.068, 307.274 309.237, 302.983 302.202 L 300.971 298.904 297.931 300.700 C 294.537 302.705, 289 310.664, 289 313.538 C 289 315.024, 288.749 315.149, 287.754 314.154 C 286.805 313.205, 286.507 304.267, 286.504 276.704 L 286.500 240.500 289.870 230.500 C 296.543 210.698, 302.227 203, 310.175 203 C 314.992 203, 321.816 206.154, 325.644 210.150 C 329.282 213.948, 327.804 215.007, 322.846 212.154 C 320.635 210.881, 318.588 210.078, 318.298 210.369 C 318.007 210.660, 318.271 212.338, 318.884 214.098 C 321.620 221.945, 318.647 236.379, 312.390 245.632 C 309.970 249.210, 308.440 253.112, 307.337 258.524 C 305.542 267.324, 306.199 273.686, 310.481 288.972 C 311.795 293.663, 313.397 300.200, 314.042 303.500 C 315.939 313.209, 315.625 313.111, 322.082 306.031 C 335.431 291.395, 342.559 269.480, 340.144 250.500 C 339.654 246.650, 339.360 243.374, 339.491 243.219 C 339.622 243.064, 342.040 242.664, 344.864 242.330 C 347.689 241.995, 350 241.581, 350 241.409 C 350 241.237, 348.029 238.262, 345.621 234.798 C 334.968 219.478, 331.993 209.700, 334.429 198.017 C 337.013 185.626, 339.903 180.794, 351.772 169.024 C 357.672 163.173, 364.038 155.790, 365.917 152.619 C 370.765 144.436, 375.545 131.115, 379.006 116.136 C 383.328 97.430, 384.315 89.158, 383.045 82.287 C 381.338 73.049, 381.307 73.046, 365.961 80.750 C 331.876 97.862, 316.016 114.723, 308.991 141.318 C 307.729 146.093, 306.428 149.997, 306.099 149.994 C 305.769 149.990, 304.721 148.619, 303.769 146.946 C 301.572 143.086, 295.572 140.401, 283.111 137.702 C 269.106 134.670, 242.733 134.764, 228 137.899 C 215.103 140.644, 209.899 142.865, 206.918 146.897 C 205.656 148.604, 204.361 150, 204.040 150 C 203.719 150, 202.896 147.048, 202.212 143.440 C 198.558 124.180, 184.050 103.801, 165 91.173 C 159.322 87.409, 137.723 76.351, 132.718 74.645 C 131.420 74.203, 130.628 74.780, 129.802 76.769 M 244.500 81.077 C 239.550 81.467, 231.490 82.744, 226.590 83.913 C 215.958 86.449, 197.010 93.811, 196.291 95.684 C 196.010 96.415, 197.145 100.498, 198.812 104.757 C 200.479 109.016, 202.839 115.650, 204.057 119.500 C 205.275 123.350, 206.379 126.631, 206.510 126.791 C 206.641 126.950, 208.302 126.164, 210.201 125.044 C 216.254 121.472, 228.328 119, 239.715 119 L 250.111 119 252.704 113.250 C 254.130 110.088, 255.455 107.313, 255.648 107.083 C 256.398 106.195, 257.228 108.057, 258.361 113.174 L 259.541 118.500 273.521 119.120 C 287.560 119.743, 295.665 121.585, 301.661 125.514 C 302.909 126.331, 304.133 127, 304.382 127 C 304.631 127, 306.296 122.612, 308.081 117.250 C 309.867 111.888, 312.375 105.250, 313.654 102.500 C 314.934 99.750, 315.985 96.999, 315.990 96.387 C 316.001 95.211, 308.704 91.681, 297.716 87.545 C 283.474 82.184, 262.607 79.648, 244.500 81.077 M 157.041 101 C 157.561 102.925, 159.055 107.537, 160.361 111.250 C 162.293 116.741, 162.464 118, 161.279 118 C 160.249 118, 160.580 118.901, 162.411 121.077 C 165.315 124.528, 165.746 126.223, 163.500 125.362 C 161.029 124.413, 161.807 126.559, 164.447 127.972 C 168.123 129.939, 168.642 132.197, 165.223 131.349 C 162.523 130.678, 162.532 130.708, 166.250 134.839 C 171.662 140.853, 171.294 141.233, 164.500 136.647 L 161.500 134.622 163.471 137.061 C 164.555 138.402, 166.580 140.807, 167.971 142.404 C 170.002 144.737, 170.137 145.179, 168.657 144.650 C 167.644 144.288, 165.619 143.727, 164.157 143.403 C 161.527 142.821, 161.530 142.835, 164.543 144.767 C 167.791 146.850, 173 152.566, 173 154.047 C 173 154.538, 171.362 153.828, 169.360 152.470 C 164.867 149.421, 162.713 149.200, 166.497 152.176 C 168.019 153.373, 171.270 157.086, 173.721 160.426 C 178.336 166.714, 188.517 175.591, 189.426 174.120 C 190.100 173.030, 187.484 155.656, 185.485 147.941 C 181.746 133.511, 171.305 114.462, 160.578 102.500 L 156.095 97.500 157.041 101 M 348.253 105.546 C 329.474 128.544, 321 148.950, 321 171.177 L 321 174.906 326.796 171.056 C 330.313 168.720, 334.702 164.431, 337.958 160.148 C 340.909 156.266, 343.926 152.859, 344.662 152.576 C 345.398 152.294, 346 151.545, 346 150.913 C 346 150.280, 344.395 150.986, 342.434 152.482 C 336.524 156.990, 337.354 154.502, 344.126 147.410 C 349.417 141.870, 349.958 141.011, 347.313 142.360 C 345.561 143.254, 343.848 144.437, 343.508 144.988 C 343.167 145.538, 341.901 146.515, 340.694 147.158 C 338.851 148.140, 338.670 148.101, 339.565 146.914 C 340.150 146.136, 342.156 143.475, 344.022 141 C 345.888 138.525, 346.498 137.287, 345.378 138.250 C 344.259 139.213, 342.928 139.982, 342.421 139.959 C 341.915 139.937, 343.047 138.596, 344.937 136.980 C 349.124 133.401, 348.218 131.723, 343.845 134.957 C 340.319 137.564, 340.788 136.440, 345.821 130.225 C 349.176 126.081, 349.618 123.412, 346.524 125.980 C 343.936 128.128, 344.663 125.131, 347.693 121.159 C 349.174 119.217, 349.918 117.473, 349.347 117.282 C 348.720 117.073, 349.447 113.722, 351.185 108.810 C 352.767 104.340, 353.935 100.331, 353.780 99.902 C 353.626 99.472, 351.139 102.012, 348.253 105.546 M 111.292 127.144 C 93.810 148.541, 80.500 177.566, 74.562 207.244 C 70.051 229.784, 69.090 245.468, 71.012 265.144 C 75.374 309.804, 97.033 355.458, 128.162 385.607 C 142.047 399.055, 156.092 409.365, 175 419.987 C 188.468 427.553, 245.462 456.462, 251.778 458.930 L 257.057 460.993 294.778 441.673 C 342.839 417.058, 356.239 409.060, 374.168 394.284 C 410.646 364.221, 435.616 315.419, 440.062 265.500 C 444.246 218.522, 427.987 162.139, 400.340 127.750 C 397.356 124.037, 394.545 121, 394.094 121 C 393.643 121, 392.493 124.933, 391.538 129.740 C 387.264 151.259, 377.156 168.891, 361.896 181.445 C 354.162 187.808, 352.029 191.368, 350.022 201.263 L 348.853 207.027 353.551 215.645 C 358.490 224.706, 373.978 249.801, 377.163 253.903 C 378.189 255.224, 378.836 256.498, 378.600 256.733 C 378.232 257.101, 361.304 252.819, 357.751 251.459 C 356.805 251.097, 356.468 253.481, 356.371 261.240 C 356.174 276.830, 352.352 288.746, 342.454 304.626 C 337.569 312.464, 337.325 313.897, 339.500 322 C 341.361 328.932, 341.378 335.991, 339.551 342.853 C 337.888 349.104, 337.280 349.984, 336.416 347.393 C 335.036 343.251, 326.832 327.350, 324.864 325 L 322.770 322.500 315.635 330.093 C 305.431 340.953, 286.036 374.587, 282.943 386.786 C 281.619 392.010, 281.568 392.063, 278.552 391.286 C 274.395 390.215, 233.017 390.921, 230.814 392.100 C 229.365 392.875, 228.939 392.548, 228.436 390.272 C 225.977 379.159, 210.022 346.268, 202.547 336.902 C 198.341 331.632, 187.429 322.237, 186.543 323.123 C 184.607 325.059, 178.633 336.563, 176.438 342.582 C 174.940 346.688, 173.525 349.859, 173.294 349.627 C 173.063 349.396, 172.232 346.798, 171.449 343.853 C 169.562 336.764, 169.628 327.393, 171.620 319.460 L 173.241 313.009 169.169 306.755 C 159.249 291.519, 155 278.036, 155 261.793 L 155 251.213 145.378 253.656 C 140.086 255, 135.174 255.965, 134.462 255.800 C 133.110 255.487, 142.827 238.401, 155.107 219.500 C 158.680 214, 161.916 208.681, 162.298 207.679 C 163.421 204.732, 160.152 192.553, 157.193 188.660 C 155.712 186.711, 151.575 182.819, 148 180.011 C 144.425 177.203, 139.336 172.339, 136.690 169.203 C 128.494 159.485, 121.468 142.508, 119.430 127.500 C 118.291 119.109, 117.872 119.090, 111.292 127.144 M 414 189.223 C 409.875 189.692, 401.212 189.946, 394.749 189.788 C 388.285 189.630, 382.998 189.514, 382.999 189.530 C 382.999 189.547, 384.562 193.264, 386.471 197.791 C 394.608 217.085, 399.482 238.587, 401.138 262.500 C 401.786 271.850, 402.384 279.602, 402.467 279.726 C 402.551 279.851, 405.067 278.964, 408.060 277.755 C 412.605 275.919, 415.454 275.559, 425.381 275.563 L 437.261 275.567 436.730 258.534 C 436.347 246.287, 435.476 237.689, 433.628 227.938 C 430.627 212.098, 424.777 191.283, 422.845 189.566 C 421.866 188.696, 419.458 188.603, 414 189.223 M 84.535 196.452 C 80.965 206.429, 77.232 222.016, 75.511 234.130 C 74.025 244.584, 73.525 265.499, 74.606 272.028 L 75.190 275.556 86.345 275.588 C 95.430 275.614, 98.521 276.026, 103 277.809 C 106.025 279.014, 108.612 279.999, 108.750 279.999 C 108.888 280, 109.008 274.712, 109.018 268.250 C 109.052 246.782, 113.717 223.760, 122.569 201.378 C 125.006 195.217, 126.999 190.024, 126.997 189.838 C 126.995 189.652, 118.008 189.478, 107.025 189.452 L 87.056 189.403 84.535 196.452 M 199.313 215.786 C 197.093 217.197, 196.077 221.520, 197.357 224.099 C 199.963 229.345, 207 226.631, 207 220.380 C 207 216.069, 202.808 213.563, 199.313 215.786 M 304.443 217.447 C 303.069 219.544, 303.030 220.281, 304.170 222.604 C 307.063 228.501, 311.631 228.270, 313.390 222.137 C 315.131 216.065, 307.849 212.248, 304.443 217.447 M 233.378 310.490 C 229.538 312.792, 225.296 317.630, 226.267 318.601 C 226.502 318.835, 229.723 316.996, 233.425 314.514 C 237.127 312.031, 240.770 310, 241.519 310 C 242.269 310, 243.160 309.550, 243.500 309 C 244.742 306.990, 237.419 308.068, 233.378 310.490 M 267.579 308.872 C 267.283 309.351, 269.125 310.540, 271.674 311.513 C 274.222 312.486, 278.050 314.857, 280.180 316.782 C 282.310 318.706, 284.255 320.078, 284.503 319.831 C 285.652 318.681, 280.886 312.267, 277.396 310.266 C 273.426 307.991, 268.552 307.298, 267.579 308.872 M 233 323.172 C 228.256 324.515, 225.187 327.593, 223.928 332.269 C 221.374 341.751, 227.558 350.476, 238.197 352.402 C 242.920 353.256, 247.734 351.293, 251.297 347.059 C 255.557 341.996, 254.356 334.429, 248.705 330.726 C 247.386 329.862, 245.751 327.813, 245.072 326.173 C 243.372 322.069, 239.922 321.211, 233 323.172 M 266.416 325.643 C 264.849 327.765, 262.038 331.246, 260.169 333.379 C 257.216 336.751, 256.840 337.770, 257.296 341.167 C 258.015 346.527, 262.182 351.756, 266.360 352.540 C 273.589 353.896, 282.853 348.988, 285.636 342.329 C 289.673 332.667, 284.404 324.208, 273.237 322.422 C 269.493 321.823, 269.101 322.008, 266.416 325.643 M 231.750 333.080 C 228.949 334.711, 229.533 339.687, 232.923 343.077 C 238.260 348.414, 245.061 346.572, 244.968 339.816 C 244.889 334.072, 236.973 330.038, 231.750 333.080 M 269.174 334.314 C 267.045 336.581, 266.341 341.120, 267.607 344.418 C 267.987 345.407, 269.420 346, 271.433 346 C 274.960 346, 278.200 343.260, 279.863 338.871 C 282.156 332.816, 273.892 329.292, 269.174 334.314 M 254.250 372.749 C 243.113 372.910, 234.002 373.370, 234.004 373.771 C 234.006 374.172, 234.899 375.962, 235.989 377.750 L 237.971 381 254.404 381 C 263.442 381, 271.565 380.720, 272.455 380.379 C 274.072 379.759, 277 375.036, 277 373.050 C 277 372.472, 276.438 372.103, 275.750 372.228 C 275.063 372.354, 265.387 372.588, 254.250 372.749" stroke="none" fill="black" fill-rule="evenodd"/>
</svg>