<svg xmlns="http://www.w3.org/2000/svg" width="512" height="512" viewBox="0 0 512 512" version="1.1">
	<path d="M 253 44.570 C 251.625 44.810, 247.125 45.506, 243 46.116 C 238.875 46.727, 231 48.560, 225.500 50.191 C 197.378 58.528, 179.540 70.827, 160.507 95 C 148.647 110.063, 147.016 111.166, 129.378 116.034 C 104.428 122.920, 92.588 128.708, 80.903 139.730 C 69 150.959, 62.246 162.240, 55.898 181.500 C 52.769 190.992, 52.600 192.262, 52.573 206.500 C 52.546 221.103, 52.633 221.732, 55.871 230.261 C 58.953 238.378, 62.300 244.186, 63.213 243 C 63.425 242.725, 64.585 238.029, 65.791 232.565 C 68.758 219.128, 72.613 211.251, 79.664 204.226 L 85.411 198.500 86.727 203.500 C 89.711 214.837, 98.834 235, 100.980 235 C 101.438 235, 102.133 232.637, 102.525 229.750 C 104.151 217.782, 109.340 205.187, 116.223 196.500 C 120.884 190.619, 130.151 182.472, 134.734 180.228 C 137.893 178.682, 138.146 178.734, 145.520 182.478 C 156.328 187.963, 162.825 195.223, 166.228 205.616 C 167.648 209.952, 169.590 218.318, 170.544 224.207 L 172.279 234.914 167.071 240.612 C 160.673 247.613, 155.110 255.721, 149.495 266.231 C 146.189 272.418, 144.343 274.719, 141.359 276.371 C 136.159 279.251, 132.661 285.962, 133.474 291.500 C 134.407 297.859, 138.667 305.631, 142.524 308.015 C 144.410 309.180, 148.801 310.606, 152.282 311.182 L 158.612 312.231 157.879 317.366 C 155.889 331.305, 157.316 354.654, 161.054 369.313 C 167.527 394.698, 174.632 407.893, 202.084 445.515 C 208.913 454.873, 218.072 468.235, 222.437 475.208 C 226.803 482.181, 230.701 487.685, 231.100 487.438 C 231.499 487.191, 232.116 485.079, 232.471 482.745 C 234.228 471.182, 236.481 461.773, 239.174 454.750 C 240.808 450.488, 242.283 447, 242.452 447 C 242.620 447, 245.253 448.142, 248.302 449.538 C 270.002 459.472, 301.890 460.644, 326.516 452.412 C 366.977 438.886, 402.936 401.642, 415.554 360.194 L 418.691 349.888 422.859 358.194 C 428.942 370.315, 431.128 379.854, 431.478 395.802 C 431.639 403.118, 431.978 409.312, 432.233 409.566 C 432.904 410.238, 440.603 393.289, 441.988 388.090 C 442.634 385.665, 444.664 374.865, 446.499 364.090 C 448.546 352.064, 450.803 342.183, 452.343 338.500 C 456.266 329.116, 461.957 308.492, 463.656 297.500 C 465.475 285.737, 464.970 263.847, 462.546 249.322 C 455.264 205.683, 434.472 160.587, 407.504 129.941 C 372.627 90.306, 363.779 81.691, 345.248 69.321 C 329.399 58.742, 309.582 50.382, 291 46.438 C 283.824 44.915, 258.234 43.657, 253 44.570 M 244.378 57.520 C 220.565 61.879, 198.333 71.876, 185.638 83.933 C 182.414 86.995, 175.667 93.953, 170.645 99.395 C 163.842 106.766, 162.149 109.100, 164.007 108.547 C 167.375 107.544, 183.462 101.031, 194.500 96.201 C 208.912 89.894, 209.127 89.893, 203.654 96.123 C 191.012 110.514, 190.135 122.533, 200.153 144.096 C 203.499 151.296, 204.814 153.162, 206.904 153.668 C 222.061 157.341, 243.284 175.364, 251.859 191.846 C 263.475 214.173, 260.677 232.445, 241.184 261.553 C 223.407 288.100, 200.450 306.178, 179.157 310.398 C 175.118 311.198, 171.629 312.038, 171.403 312.264 C 169.997 313.670, 168.633 326.397, 168.698 337.500 C 168.821 358.313, 173.668 377.454, 184.019 398 C 189.915 409.704, 194.955 417.151, 212.012 439.368 L 225.345 456.732 228.101 448.532 C 233.795 431.585, 246.292 407.774, 262.659 382.683 C 272.897 366.990, 278.317 359.593, 296.503 336.500 C 333.738 289.219, 353.919 253.156, 361.065 221.130 C 369.469 183.467, 358.317 143.754, 331.773 116.814 C 313.457 98.226, 290.588 90.088, 268.912 94.444 C 246.983 98.851, 230.764 113, 226.394 131.536 C 225.426 135.641, 224.273 139, 223.831 139 C 222.143 139, 219.752 131.248, 219.667 125.500 C 219.547 117.428, 222.342 111.554, 230.192 103.379 C 241.591 91.507, 256.860 83.873, 272.631 82.158 C 327.776 76.163, 377 134.365, 377 205.561 C 377 210.981, 377.564 212.842, 381.422 220.137 C 387.187 231.040, 392.414 246.311, 395.731 261.942 C 399.110 277.863, 399.611 302.495, 396.706 309.906 C 395.756 312.329, 395.159 314.493, 395.380 314.713 C 396.167 315.500, 408.060 298.391, 411.017 292.219 C 423.322 266.537, 422.746 234.364, 409.382 200.975 C 407.377 195.965, 402.857 187.559, 399.338 182.296 C 395.819 177.033, 393.191 172.476, 393.497 172.170 C 394.617 171.050, 408.729 186.723, 413.447 194.327 C 416.118 198.632, 420.004 206.286, 422.083 211.335 C 425.785 220.326, 430 237.704, 430 243.977 C 430 245.819, 431.197 248.885, 432.865 251.320 C 441.357 263.708, 446.655 279.251, 448.535 297.295 C 448.924 301.033, 449.383 303.950, 449.555 303.779 C 449.726 303.607, 450.385 297.736, 451.018 290.731 C 455.181 244.677, 438.115 189.456, 406.715 147.381 C 395.425 132.254, 367.102 101.084, 356.753 92.399 C 334.629 73.831, 309.996 61.800, 285.280 57.490 C 274.972 55.692, 254.281 55.707, 244.378 57.520 M 259.970 108.250 C 256.432 110.037, 255.127 111.452, 253.624 115.127 C 250.290 123.280, 253.780 131.178, 262.459 135.120 C 267.690 137.497, 271.409 137.469, 276.434 135.015 C 288.168 129.286, 288.291 113.708, 276.647 108.071 C 271.100 105.386, 265.520 105.446, 259.970 108.250 M 180.500 113.589 C 177.750 114.926, 173.098 116.734, 170.163 117.606 L 164.826 119.192 173.173 127.846 C 177.764 132.606, 184.096 139.425, 187.245 143 L 192.969 149.500 190.441 143.622 C 186.492 134.444, 184.719 125.448, 185.339 117.750 C 185.639 114.037, 185.797 111.035, 185.692 111.079 C 185.586 111.122, 183.250 112.252, 180.500 113.589 M 265.571 116.571 C 263.712 118.431, 263.501 123.101, 265.200 124.800 C 268.191 127.791, 275 124.876, 275 120.606 C 275 115.483, 269.159 112.984, 265.571 116.571 M 140.937 126.511 C 131.827 128.376, 120.524 131.295, 115.819 132.998 C 105.626 136.686, 93.041 144.239, 87.500 149.992 L 83.500 154.146 90.484 149.920 C 106.794 140.050, 135.900 131.020, 156.750 129.361 C 161.287 129, 165 128.354, 165 127.925 C 165 126.827, 159.961 122.988, 158.615 123.060 C 158.002 123.093, 150.047 124.646, 140.937 126.511 M 145 148.646 C 121.481 151.493, 101.751 157.889, 86.949 167.464 C 77.156 173.800, 71.836 179.499, 67.698 188.090 C 62.891 198.070, 61.982 201.873, 65.808 196 C 69.277 190.674, 79.531 180.729, 86.351 176.075 C 93.944 170.894, 107.572 164.510, 118.389 161.066 C 133.063 156.395, 148.975 153.945, 170 153.119 L 188.500 152.392 184.500 150.498 C 181.160 148.916, 177.861 148.572, 164.500 148.413 C 155.700 148.308, 146.925 148.413, 145 148.646 M 289.642 164.843 C 288.739 165.841, 288 167.007, 288 167.435 C 288 167.862, 291.175 171.612, 295.056 175.767 C 300.238 181.316, 303.269 185.737, 306.467 192.412 C 313.087 206.227, 314.482 212.853, 314.486 230.500 C 314.490 246.571, 312.923 254.299, 307.480 265.040 C 305.916 268.125, 305.451 270.101, 306.061 271.065 C 306.561 271.854, 306.976 273.512, 306.985 274.750 C 307.010 278.537, 308.645 277.315, 313.737 269.701 C 322.975 255.889, 326.626 241.819, 325.704 223.581 C 325.012 209.883, 323.082 202.147, 317.398 190.277 C 312.285 179.599, 303.931 169.913, 296.211 165.711 C 291.472 163.132, 291.221 163.099, 289.642 164.843 M 163.531 165.049 C 157.047 166.063, 146.984 169.226, 143 171.501 C 139.552 173.471, 140.693 173.342, 147.530 170.990 C 163.628 165.451, 192.352 164.415, 207.486 168.826 C 214.569 170.890, 217.677 170.972, 212.389 168.954 C 201.575 164.828, 177.331 162.890, 163.531 165.049 M 190.360 234.376 C 179.148 242.747, 168.804 255.624, 161.386 270.442 L 156.865 279.472 159.043 281.236 C 160.241 282.206, 161.556 283, 161.965 283 C 162.374 283, 164.963 278.387, 167.719 272.750 C 172.815 262.322, 179.657 252.079, 189.926 239.500 C 198.987 228.402, 199.030 227.902, 190.360 234.376 M 368.744 239.491 C 360.883 266.901, 340.864 301.215, 308.869 342.123 C 287.692 369.200, 282.263 376.516, 273.720 389.500 C 264.793 403.067, 248 432.520, 248 434.612 C 248 436.489, 263.117 437.330, 273.500 436.030 C 315.340 430.791, 346.888 405.740, 368.619 360.500 C 379.347 338.165, 383.890 320.452, 384.700 297.804 C 385.559 273.765, 382.171 252.893, 374.849 237.103 L 371.500 229.882 368.744 239.491 M 229.500 244.762 C 205.714 274.664, 187.289 288.332, 168.865 289.744 C 163.170 290.180, 161.419 289.880, 156.495 287.626 C 153.340 286.182, 150.003 285, 149.079 285 C 142.625 285, 144.311 296.202, 151.203 299.109 C 155.636 300.979, 169.203 300.664, 176.578 298.520 C 197.213 292.522, 217.993 274.703, 232.024 250.975 C 235.073 245.820, 240.421 233.073, 239.789 232.468 C 239.630 232.315, 235 237.847, 229.500 244.762" stroke="none" fill="black" fill-rule="evenodd"/>
</svg>