<svg xmlns="http://www.w3.org/2000/svg" width="512" height="512" viewBox="0 0 512 512" version="1.1">
	<path d="M 183.760 51.558 C 172.801 54.214, 165.752 59.147, 159.539 68.508 C 156.217 73.512, 155.746 73.854, 153.405 72.964 C 152.011 72.434, 147.316 72, 142.972 72 C 130.045 72, 125.887 74.113, 112.227 87.622 L 100.722 99 95.557 99 C 86.512 99, 78.098 105.986, 74.662 116.349 C 73.778 119.016, 71.485 122.935, 69.567 125.058 C 65.111 129.990, 62.613 138.160, 63.555 144.728 C 63.931 147.353, 65.542 152.919, 67.134 157.098 L 70.028 164.696 67.570 170.098 C 60.312 186.043, 56.581 207.169, 57.343 228 C 58.135 249.609, 62.128 264.916, 72.988 287.960 C 78.167 298.952, 85 316.082, 85 318.076 C 85 318.458, 82.417 319.092, 79.260 319.487 C 69.319 320.729, 61.529 326.266, 57.938 334.645 C 56.514 337.968, 54.696 339.793, 49.614 343.002 C 42.283 347.632, 36.734 353.377, 37.207 355.847 C 37.460 357.166, 39.342 357.658, 46.512 358.282 C 51.455 358.712, 58.200 359.726, 61.500 360.537 C 69.036 362.388, 82.760 369.051, 85.884 372.377 L 88.250 374.896 85.408 384.698 C 82.804 393.677, 82.563 395.886, 82.535 411 C 82.506 426.699, 83.148 433.018, 84.769 432.985 C 85.171 432.977, 87.300 429.535, 89.500 425.336 C 95.594 413.705, 101.338 410.198, 117.249 408.394 L 122.998 407.742 124.964 412.185 C 127.552 418.037, 131.799 441.673, 132.746 455.500 C 133.193 462.021, 133.927 466.500, 134.548 466.500 C 135.124 466.500, 140.315 460.657, 146.083 453.516 C 156.962 440.048, 160.644 436.786, 167.179 434.828 C 172.171 433.333, 172.871 434.239, 177.149 447.750 C 178.935 453.388, 180.707 458, 181.088 458 C 181.777 458, 183.210 455.146, 188.496 443.250 C 190.023 439.813, 191.774 437.004, 192.387 437.009 C 194.235 437.025, 203.220 442.568, 207.764 446.494 C 213.461 451.419, 217.688 457.752, 222.085 467.955 C 224.090 472.605, 226.148 476.549, 226.659 476.720 C 227.654 477.051, 229.485 472.573, 231.656 464.500 C 232.396 461.750, 233.676 452.562, 234.501 444.083 C 235.326 435.603, 236.233 428.433, 236.517 428.149 C 237.542 427.125, 239.038 429.722, 241.320 436.488 C 242.599 440.280, 244.148 443.549, 244.763 443.754 C 247.675 444.725, 252 422.023, 252 405.764 L 252 396.975 255.942 399.463 C 263.436 404.194, 291.535 417.805, 301.272 421.421 C 333.775 433.490, 371.298 436.302, 400.933 428.888 C 428.676 421.948, 449.134 406.095, 455.105 386.909 C 457.653 378.723, 457.491 373.260, 454.439 364.416 C 452.473 358.721, 452.031 355.973, 452.538 352.595 C 453.366 347.075, 451.195 339.254, 447.006 332.661 L 443.931 327.821 438.875 328.161 L 433.820 328.500 432.446 324.513 C 430.714 319.486, 428.381 317.694, 424.500 318.412 C 417.717 319.665, 417.779 319.688, 416.321 315.390 C 413.793 307.938, 408.346 305.045, 401.357 307.442 C 399.541 308.065, 399.040 307.652, 398.078 304.736 C 395.852 297.993, 389.856 294.983, 383.302 297.318 C 381.367 298.008, 380.980 297.641, 380.063 294.236 C 378.518 288.497, 374.898 285.570, 369.213 285.463 L 364.534 285.375 363.788 280.937 C 362.912 275.724, 360.540 273.436, 355.047 272.508 C 351.281 271.872, 351.068 271.636, 350.434 267.409 C 349.507 261.227, 346.887 258.256, 341.674 257.474 L 337.403 256.833 336.124 249.919 C 334.895 243.271, 334.953 242.697, 337.622 235.002 C 339.148 230.601, 340.646 227.003, 340.949 227.007 C 341.252 227.011, 342.513 228.502, 343.752 230.322 C 344.991 232.141, 347.345 234.914, 348.983 236.484 C 351.626 239.016, 352.252 239.206, 354.528 238.169 C 355.938 237.527, 357.859 235.617, 358.796 233.925 C 362.546 227.157, 362.489 227.149, 365.528 234.895 C 367.084 238.859, 368.754 242.348, 369.241 242.649 C 371.444 244.011, 376.459 236.696, 378.941 228.500 C 379.607 226.300, 380.350 223.883, 380.591 223.128 C 380.882 222.222, 382.528 223.364, 385.437 226.487 C 387.861 229.090, 390.441 231.022, 391.172 230.782 C 393.197 230.117, 396.873 224.186, 398.105 219.599 C 400.008 212.508, 400.416 212.122, 404.776 213.286 C 406.891 213.850, 409.835 214.007, 411.320 213.635 C 414.975 212.717, 419.628 206.021, 421.062 199.615 C 422.001 195.418, 422.921 193.908, 425.694 192.008 C 429.984 189.068, 434.424 182.738, 435.884 177.481 C 438.499 168.062, 436.511 152.184, 431.351 141.277 C 428.233 134.685, 410.779 112.685, 404.147 106.986 C 394.701 98.869, 373.621 90.044, 344.843 82.159 C 313.998 73.707, 277.288 69.994, 259.500 73.527 C 256.734 74.077, 256.311 73.763, 254.078 69.500 C 250.918 63.466, 243.190 56.594, 237.316 54.592 C 231.732 52.689, 222.659 52.590, 218.500 54.386 C 215.926 55.497, 214.906 55.429, 211.312 53.903 C 206.551 51.881, 197.121 49.960, 192.566 50.083 C 190.880 50.129, 186.917 50.793, 183.760 51.558 M 231.088 69.500 C 234.684 74.263, 235.693 75, 238.620 75 C 242.575 75, 242.775 74.255, 239.829 70.509 C 237.758 67.877, 230.942 64.069, 228.218 64.022 C 227.512 64.010, 228.804 66.475, 231.088 69.500 M 187.001 73.123 C 180.091 75.879, 175.841 83.429, 175.248 94 C 174.922 99.825, 175.184 101.947, 176.420 103.500 C 177.940 105.410, 177.966 105.374, 177.006 102.685 C 175.595 98.736, 175.749 95.209, 177.605 88.959 C 180.448 79.385, 189.951 72.732, 198.196 74.543 C 206.064 76.271, 213 87.540, 213 98.597 C 213 104.827, 214.314 105.022, 216.101 99.058 C 218.636 90.595, 213.616 78.864, 205.500 74.288 C 201.146 71.833, 191.724 71.240, 187.001 73.123 M 238 79.520 C 238 79.819, 238.652 81.625, 239.449 83.532 L 240.898 87 247.994 87 C 254.142 87, 255.410 87.319, 257.479 89.388 C 262.487 94.396, 261.599 103.335, 255.485 109.449 C 252.627 112.307, 250.553 113.141, 240.495 115.480 C 234.074 116.973, 223.124 120.039, 216.161 122.294 C 204.852 125.956, 202.432 126.397, 193.500 126.427 C 184.790 126.455, 181.175 125.860, 165.481 121.813 C 143.142 116.053, 135.684 115.202, 126.951 117.418 C 119.483 119.313, 111.543 124.405, 108.100 129.505 C 104.998 134.102, 104.209 141.569, 106.382 145.771 C 108.561 149.985, 109.766 150.522, 112.166 148.348 C 113.770 146.895, 116.196 146.427, 123.524 146.156 C 134.914 145.736, 139.679 146.979, 157.500 155.017 C 164.650 158.242, 174.550 162.123, 179.500 163.642 C 188.320 166.348, 189.029 166.405, 215 166.492 L 241.500 166.581 254 169.987 C 265.953 173.243, 267.400 173.410, 287.055 173.781 C 300.305 174.031, 314.344 173.616, 326.555 172.613 C 357.097 170.102, 375.151 169.633, 390.852 170.940 C 408.582 172.417, 419.312 174.412, 423.526 177.016 L 426.748 179.008 427.374 175.879 C 430.257 161.464, 425.122 144.402, 414.688 133.728 C 411.584 130.554, 407.258 125.325, 405.073 122.108 C 402.889 118.891, 399.014 114.422, 396.463 112.177 C 391.530 107.834, 383.320 103.346, 382.256 104.410 C 381.905 104.762, 383.902 107.401, 386.694 110.275 C 389.486 113.149, 392.322 116.575, 392.995 117.889 C 394.980 121.763, 395.925 125.928, 394.956 126.527 C 392.336 128.147, 379.967 117.786, 373.960 108.941 C 368.596 101.042, 366.358 99.537, 354.129 95.602 C 329.602 87.709, 302.722 83.327, 271 82.052 C 259.175 81.577, 248.825 80.958, 248 80.677 C 245.445 79.808, 238 78.946, 238 79.520 M 140.500 81.523 C 137.750 82.287, 135.152 82.932, 134.728 82.956 C 131.771 83.125, 119.688 98.021, 121.244 99.578 C 121.914 100.248, 140.318 94.879, 144.279 92.858 C 150.217 89.828, 154.125 82.030, 150.418 80.607 C 148.191 79.752, 146.224 79.934, 140.500 81.523 M 197.250 82.989 C 194.592 84.610, 194 85.600, 194 88.429 C 194 95.028, 200.996 97.171, 205.411 91.923 C 208.696 88.020, 208.684 85.683, 205.365 83.073 C 202.111 80.513, 201.325 80.505, 197.250 82.989 M 309.871 100.508 C 308.411 101.302, 306.521 103.740, 305.619 105.995 C 304.198 109.546, 304.170 110.470, 305.392 113.396 C 307.228 117.790, 310.551 120, 315.321 120 C 318.368 120, 319.818 119.335, 322.099 116.894 C 327.088 111.553, 325.644 103.936, 318.989 100.494 C 315.434 98.656, 313.275 98.659, 309.871 100.508 M 341.655 102.829 C 340.681 103.904, 340 106.346, 340 108.758 C 340 119.359, 356.537 125.608, 360.061 116.339 C 361.995 111.253, 358.848 105.478, 352.316 102.122 C 348.952 100.394, 343.534 100.753, 341.655 102.829 M 89.450 109.407 C 85.458 111.146, 81.336 116.131, 80.044 120.781 C 78.723 125.537, 78.695 134, 80 134 C 80.550 134, 81 133.070, 81 131.934 C 81 128.658, 82.783 126.162, 87.043 123.473 C 89.956 121.634, 91 120.306, 91 118.438 C 91 115.249, 93.452 110.419, 95.750 109.080 C 97.272 108.193, 97.175 108.062, 95 108.070 C 93.625 108.074, 91.128 108.676, 89.450 109.407 M 93.211 153.434 C 82.751 164.616, 75.826 182.203, 73.104 204.500 C 71.814 215.073, 71.718 219.003, 72.750 218.991 C 73.162 218.986, 75.291 215.048, 77.481 210.241 C 85.940 191.668, 99.693 175.214, 112.504 168.339 L 118.181 165.293 112.841 162.259 C 106.713 158.778, 104.026 156.079, 101.303 150.672 L 99.376 146.843 93.211 153.434 M 251.415 182.888 C 251.670 183.775, 252.190 187.650, 252.571 191.500 C 253.809 203.994, 255.507 205.366, 260.463 197.877 C 261.909 195.692, 264.699 192.126, 266.662 189.952 C 268.626 187.778, 270.068 185.970, 269.866 185.934 C 269.665 185.898, 265.327 184.835, 260.227 183.572 C 252.090 181.558, 251.010 181.474, 251.415 182.888 M 346.750 184.728 C 344.688 184.944, 343.023 185.431, 343.050 185.810 C 343.162 187.341, 351.789 201.430, 352.825 201.775 C 354.074 202.191, 365.078 185.935, 364.348 184.754 C 363.883 184.001, 353.842 183.987, 346.750 184.728 M 371.167 184.780 C 371.350 185.209, 372.798 189.034, 374.384 193.280 C 375.970 197.526, 377.835 201, 378.528 201 C 379.220 201, 381.940 197.850, 384.570 194 C 387.201 190.150, 389.681 187, 390.081 187 C 390.482 187, 391.997 189.025, 393.447 191.500 C 394.898 193.975, 396.454 196, 396.906 196 C 397.852 196, 401.439 187.106, 400.765 186.432 C 399.097 184.764, 370.477 183.167, 371.167 184.780 M 319.250 186.740 C 315.813 186.936, 313 187.220, 313 187.373 C 313 188.260, 317.990 202.113, 318.968 203.940 C 319.922 205.722, 320.412 205.903, 321.606 204.912 C 323.396 203.427, 336 187.365, 336 186.570 C 336 186.006, 331.348 186.053, 319.250 186.740 M 404.295 188.726 C 404.632 190.410, 405.513 193.272, 406.253 195.086 L 407.599 198.384 409.800 193.703 C 412.582 187.783, 412.557 187, 409.582 187 C 408.252 187, 406.380 186.699, 405.423 186.332 C 403.933 185.760, 403.771 186.105, 404.295 188.726 M 283.099 195.750 C 285.562 207.083, 285.651 207.295, 287.514 206.252 C 288.357 205.780, 292.178 201.614, 296.005 196.994 C 300.899 191.085, 302.597 188.363, 301.731 187.813 C 301.054 187.383, 296.157 187.024, 290.849 187.015 L 281.198 187 283.099 195.750 M 81.658 222.163 C 76.763 229.781, 75.214 247.670, 78.383 260 C 80.404 267.864, 86.456 281, 88.058 281 C 88.759 281, 88.938 280.312, 88.513 279.250 C 88.128 278.288, 86.685 273.225, 85.307 268 C 82.425 257.068, 81.038 232.822, 82.848 225.027 C 84.070 219.767, 83.728 218.943, 81.658 222.163 M 136.673 225.940 C 123.119 240.943, 121.952 267.080, 134.075 284.105 C 136.018 286.833, 136.373 286.972, 137.895 285.595 C 138.818 284.760, 141.221 283.388, 143.235 282.546 L 146.897 281.016 144.496 275.758 C 140.627 267.287, 138.876 259.239, 138.346 247.500 C 137.944 238.579, 138.221 235.130, 139.811 229.250 C 140.889 225.262, 141.425 222, 141.002 222 C 140.579 222, 138.631 223.773, 136.673 225.940 M 198.734 238.088 C 188.745 240.442, 181.345 246.664, 172.107 260.478 C 165.192 270.819, 163.283 274.617, 164.425 275.758 C 164.759 276.093, 166.263 275.380, 167.766 274.174 C 172.329 270.515, 174.652 269.914, 179.776 271.062 C 185.977 272.452, 190.794 276.279, 193.207 281.735 C 194.894 285.549, 195.486 286.086, 197.338 285.480 C 202.215 283.885, 206.824 283.858, 209.819 285.406 C 213.788 287.459, 217.475 292.383, 219.061 297.750 C 219.751 300.087, 220.640 302, 221.036 302 C 221.432 302, 223.402 301.312, 225.414 300.471 C 233.058 297.278, 241.911 303.194, 245.455 313.864 C 246.393 316.689, 247.254 319, 247.369 319 C 247.483 319, 249.342 318.100, 251.500 317 C 261.487 311.909, 269.652 316.488, 274.680 330 C 275.601 332.475, 276.430 334.618, 276.523 334.762 C 276.615 334.906, 278.808 334.088, 281.395 332.944 C 286.950 330.486, 290.837 330.969, 295.854 334.740 C 298.912 337.038, 304.997 347.652, 304.999 350.691 C 305.001 353.151, 306.987 352.951, 310.190 350.169 C 314.781 346.181, 317.316 345, 321.286 345 C 327.161 345, 331.803 349.085, 337.356 359.140 L 339.211 362.500 342.856 358.370 C 348.907 351.513, 353.032 350.445, 359.914 353.956 C 363.546 355.809, 366.269 358.464, 370.259 364.041 C 371.945 366.399, 372.068 366.423, 373.259 364.616 C 373.941 363.580, 375.512 361.490, 376.750 359.972 C 377.988 358.453, 379 356.812, 379 356.324 C 379 355.837, 373.712 352.987, 367.250 349.991 C 351.920 342.884, 338.425 333.756, 323 320.061 C 316.125 313.956, 302.850 302.345, 293.500 294.259 C 284.150 286.173, 270.423 273.683, 262.996 266.504 C 243.534 247.694, 233.335 240.932, 220.201 238.130 C 214.080 236.825, 204.179 236.805, 198.734 238.088 M 326.667 250.667 C 325.568 251.765, 325.885 273, 327 273 C 327.609 273, 328 268.500, 328 261.500 C 328 255.175, 327.850 250, 327.667 250 C 327.483 250, 327.033 250.300, 326.667 250.667 M 340.114 270.623 C 338.372 277.172, 337.249 286.036, 338.096 286.560 C 340.350 287.952, 344.372 269.972, 342.276 267.876 C 341.436 267.036, 340.881 267.740, 340.114 270.623 M 175.565 280.578 C 174.697 281.446, 173.520 283.028, 172.949 284.095 C 172.037 285.799, 172.471 286.273, 176.539 288.017 C 179.084 289.107, 181.579 290, 182.083 290 C 183.587 290, 183.122 283.619, 181.443 281.223 C 179.609 278.603, 177.744 278.399, 175.565 280.578 M 352.309 285.750 C 350.467 290.100, 350.056 295.290, 351.500 295.972 C 352.901 296.633, 355.195 291.449, 355.774 286.314 C 356.391 280.838, 354.519 280.534, 352.309 285.750 M 150 289.724 C 148.625 289.969, 146.262 291.341, 144.750 292.772 C 140.321 296.963, 140.865 302.292, 146.485 309.768 C 152.162 317.320, 155.796 320.248, 175.500 333.143 C 184.300 338.902, 198.013 348.484, 205.974 354.435 C 231.930 373.840, 249.149 384.565, 275.634 397.824 C 310.375 415.217, 336.060 422.285, 364.500 422.278 C 392.737 422.272, 416.004 416.095, 431.580 404.471 C 443.956 395.234, 449.906 382.794, 447.040 372.148 L 445.906 367.939 441.967 372.923 C 433.803 383.251, 419.853 390.196, 398.650 394.489 C 373.772 399.526, 351.826 398.933, 326.427 392.535 C 309.945 388.384, 299.359 384.219, 275.500 372.499 C 245.632 357.828, 226.717 344.483, 191.338 313.120 C 169.821 294.045, 159.267 288.072, 150 289.724 M 198.070 296.084 C 196.374 297.780, 195.237 299.574, 195.544 300.071 C 196.359 301.390, 204.692 307, 205.836 307 C 207.366 307, 208.332 297.489, 207.047 295.087 C 205.430 292.066, 201.670 292.484, 198.070 296.084 M 368.616 296.183 C 367.734 297.529, 366.723 300.738, 366.370 303.315 C 365.836 307.211, 365.998 308, 367.329 308 C 369.358 308, 370.587 305.612, 371.252 300.377 C 371.952 294.867, 370.740 292.940, 368.616 296.183 M 96.513 303.892 C 95.217 315.059, 99.865 326.682, 109.199 335.616 C 113.546 339.776, 120.808 345, 122.245 345 C 122.674 345, 121.508 341.962, 119.653 338.250 C 117.799 334.538, 115.060 327.799, 113.567 323.276 C 111.338 316.522, 110.172 314.513, 107.047 312.038 C 104.570 310.076, 102.461 307.100, 101.005 303.512 C 99.774 300.480, 98.414 298, 97.982 298 C 97.550 298, 96.889 300.651, 96.513 303.892 M 386.459 311.750 C 385.581 314.913, 384.683 318.063, 384.463 318.750 C 384.205 319.556, 385.101 320, 386.986 320 C 389.535 320, 389.993 319.552, 390.566 316.500 C 391.323 312.467, 390.348 306, 388.983 306 C 388.473 306, 387.337 308.587, 386.459 311.750 M 224.261 310.222 C 223.070 311.490, 221.409 314.171, 220.570 316.179 L 219.044 319.831 222.645 322.993 C 226.597 326.463, 230.689 328.645, 231.578 327.755 C 231.891 327.442, 232.655 324.223, 233.275 320.601 C 234.315 314.534, 234.242 313.801, 232.351 311.259 C 229.698 307.691, 226.967 307.341, 224.261 310.222 M 403.545 321.250 C 401.264 329.179, 401.213 331.358, 403.298 331.792 C 406.756 332.510, 408 330.152, 408 322.878 C 408 317.489, 407.681 316, 406.528 316 C 405.611 316, 404.487 317.978, 403.545 321.250 M 254.118 325.630 C 251.881 327.197, 246 335.560, 246 337.175 C 246 338.190, 259.120 347, 260.632 347 C 262.442 347, 263 344.439, 263 336.141 C 263 325.124, 259.966 321.534, 254.118 325.630 M 72.447 333.593 C 63.322 339.298, 59 342.699, 59 344.174 C 59 345.132, 87.229 345.304, 91.875 344.375 C 93.594 344.031, 95 343.294, 95 342.736 C 95 341.092, 84.031 328, 82.654 328 C 81.961 328, 77.368 330.517, 72.447 333.593 M 422.702 328.619 C 421.511 329.829, 418 338.048, 418 339.627 C 418 342.411, 421.149 340.888, 422.607 337.399 C 424.120 333.778, 424.192 327.107, 422.702 328.619 M 437.614 339.780 C 435.644 343.590, 434.064 350.503, 434.879 351.750 C 436.133 353.669, 440.183 355.217, 441.225 354.175 C 442.545 352.855, 441.782 339.382, 440.303 337.903 C 439.459 337.059, 438.773 337.538, 437.614 339.780 M 285.500 341.907 C 280.199 343.479, 273.142 351.322, 274.304 354.350 C 274.939 356.005, 289.200 363, 291.938 363 C 293.762 363, 294 362.386, 294 357.678 C 294 351.386, 291.477 343.302, 289.150 342.139 C 288.242 341.685, 286.600 341.581, 285.500 341.907 M 318.346 356.470 C 315.411 358.526, 310 367.226, 310 369.889 C 310 371.444, 310.966 372.501, 313.250 373.444 C 318.869 375.764, 329.024 378.309, 329.754 377.580 C 330.680 376.653, 326.415 360.283, 324.475 357.322 C 322.709 354.627, 321.264 354.426, 318.346 356.470 M 115.457 357.863 C 111.778 360.106, 107.558 364.986, 105.060 369.884 C 102.602 374.702, 95.359 399, 96.380 399 C 96.472 399, 99.240 396.398, 102.531 393.217 C 105.822 390.036, 113.084 384.195, 118.668 380.236 C 127.436 374.018, 129.056 372.420, 130.549 368.511 C 131.929 364.896, 132.903 363.823, 135.387 363.179 C 141.148 361.687, 139.743 359.540, 131.786 357.679 C 122.535 355.515, 119.247 355.552, 115.457 357.863 M 418.144 357.327 C 415.991 359.920, 414 365.995, 414 369.968 C 414 373.827, 414.135 374, 417.162 374 C 421.872 374, 429 369.498, 429 366.523 C 429 358.949, 421.835 352.879, 418.144 357.327 M 351.056 365.148 C 348.891 368.708, 345.394 380.727, 346.269 381.602 C 347.264 382.597, 358.646 383.289, 362.408 382.583 C 365.711 381.964, 365.963 381.679, 365.397 379.203 C 364.494 375.251, 360.161 365.836, 358.298 363.777 C 355.889 361.115, 353.199 361.625, 351.056 365.148 M 386.817 363.042 C 384.625 364.321, 381 374.068, 381 378.684 L 381 382.293 388.250 381.650 C 397.429 380.836, 400 380.119, 400 378.372 C 400 374.404, 391.876 361.940, 389.349 362.030 C 388.882 362.047, 387.743 362.503, 386.817 363.042 M 151.703 391.723 C 147.518 400.670, 146.507 404.916, 144.609 421.500 C 142.705 438.132, 143.068 438.356, 151.394 425.686 C 164.226 406.160, 165.655 400.560, 160.417 390.346 C 158.813 387.218, 157.014 384.499, 156.420 384.303 C 155.826 384.107, 153.704 387.446, 151.703 391.723 M 229.956 394.260 C 222.705 398.593, 222.735 400.556, 230.110 404.500 C 233.196 406.150, 237.063 409.038, 238.705 410.919 L 241.690 414.337 242.325 410.368 C 243.027 405.982, 241.732 396.237, 240.025 393.046 C 238.506 390.209, 236.288 390.476, 229.956 394.260 M 209.667 413.667 C 208.349 414.984, 209.083 416.740, 214.560 425.373 C 217.618 430.193, 221.059 436.590, 222.207 439.589 C 223.354 442.587, 224.524 444.810, 224.805 444.528 C 226.644 442.690, 223.882 424.692, 220.843 418.710 C 218.544 414.182, 212.071 411.262, 209.667 413.667" stroke="none" fill="black" fill-rule="evenodd"/>
</svg>