<svg xmlns="http://www.w3.org/2000/svg" width="512" height="512" viewBox="0 0 512 512" version="1.1">
	<path d="M 233.500 19.587 C 202.901 23.755, 183.520 29.567, 159.906 41.658 C 148.513 47.491, 137.608 55, 122.061 67.716 C 116.042 72.639, 111.450 74.160, 105.195 73.303 L 100.687 72.685 101.340 75.948 C 101.905 78.775, 101.759 79.121, 100.246 78.538 C 96.094 76.938, 86.145 75.030, 82 75.039 C 61.225 75.084, 42.705 91.268, 36.272 115 C 33.680 124.559, 33.977 145.762, 36.851 156.378 C 39.630 166.642, 44.846 177.369, 51.033 185.544 C 53.765 189.153, 56 192.263, 56 192.454 C 56 192.646, 50.825 194.065, 44.500 195.607 C 38.175 197.150, 33 198.699, 33 199.050 C 33 199.400, 36.150 200.760, 40 202.071 C 43.850 203.381, 47 204.708, 47 205.019 C 47 205.329, 44.934 207.590, 42.408 210.042 C 32.550 219.614, 24.722 233.026, 20.509 247.565 C 16.403 261.733, 16.581 261.953, 26.250 254.664 C 33.476 249.216, 44 242.568, 44 243.450 C 44 243.619, 42.858 246.253, 41.462 249.302 C 34.356 264.824, 31.355 289.356, 34.405 307 C 36.386 318.458, 38.167 324.220, 42.641 333.639 C 44.506 337.565, 47.564 346.340, 49.435 353.139 C 51.306 359.937, 53.712 367.525, 54.781 370 L 56.725 374.500 57.933 368.500 C 61.875 348.921, 72.363 326.129, 83.610 312.700 C 85.951 309.905, 85.924 309.375, 83.222 305.055 C 83.069 304.810, 79.768 307.735, 75.887 311.555 C 68.485 318.840, 61.066 328.450, 58.037 334.678 L 56.244 338.365 55.028 332.932 C 54.359 329.945, 53.566 322.431, 53.266 316.236 C 51.621 282.302, 63.948 253.239, 92 224.912 C 98.325 218.525, 104.949 212.147, 106.720 210.739 C 108.491 209.331, 110.066 207.641, 110.220 206.983 C 110.398 206.223, 107.340 205.134, 101.827 203.994 C 90.081 201.566, 80.913 196.882, 73.456 189.500 C 61.742 177.904, 54.086 162.654, 51.184 145.136 C 49.878 137.255, 49.826 134.431, 50.859 127.291 C 55.154 97.581, 75.534 81.922, 96.808 91.986 C 101.578 94.243, 105.606 97.478, 113.335 105.264 C 129.337 121.383, 136 133.536, 136 146.605 C 136 149.572, 136.413 152, 136.918 152 C 138.274 152, 141.328 146.657, 145.825 136.415 C 153.147 119.744, 162.768 106.170, 176.431 93.237 C 181.217 88.707, 184.942 85, 184.710 85 C 184.477 85, 177.359 87.540, 168.893 90.644 C 156.634 95.139, 151.919 96.387, 145.734 96.774 C 138.553 97.222, 137.498 97.025, 131.734 94.158 C 125.376 90.996, 119.098 86.508, 120 85.770 C 144.417 65.791, 154.365 58.946, 170.500 51.024 C 183.617 44.584, 194.880 40.498, 209.103 37.019 C 227.100 32.618, 237.316 31.689, 261.244 32.278 C 278.934 32.713, 284.464 33.227, 294.203 35.343 C 326.140 42.282, 354.181 55.855, 378.500 76.145 C 390.667 86.297, 390.814 86.499, 387.868 88.991 C 386.565 90.092, 382.700 92.400, 379.278 94.120 C 373.382 97.083, 372.594 97.222, 364.278 96.760 C 356.586 96.333, 353.736 95.576, 341.241 90.637 C 333.398 87.536, 326.299 85, 325.465 85 C 324.631 85, 326.998 87.636, 330.724 90.858 C 346.530 104.522, 354.813 115.376, 364.027 134.500 C 373.516 154.195, 373.393 154.088, 374.833 143.910 C 376.875 129.466, 383.799 118.034, 399.511 103.162 C 404.880 98.079, 410.372 93.958, 414.449 91.951 C 420.294 89.073, 421.594 88.811, 428.348 89.152 C 435.058 89.491, 436.355 89.912, 441.397 93.384 C 454.906 102.689, 462.683 123.402, 460.007 142.950 C 455.872 173.151, 433.898 199.242, 407.704 205.053 C 404.517 205.760, 401.696 206.682, 401.437 207.102 C 401.178 207.522, 407.869 214.758, 416.307 223.183 C 431.799 238.650, 437.450 245.998, 444.263 259.532 C 453.773 278.426, 457.579 296.433, 456.703 318.387 C 456.394 326.149, 455.755 333.790, 455.284 335.367 L 454.427 338.233 453.160 335.452 C 451.044 330.807, 438.551 314.789, 432.981 309.579 L 427.742 304.679 426.489 307.021 C 425.344 309.160, 425.802 310.189, 431.785 318.931 C 441.183 332.662, 447.599 346.685, 451.285 361.547 C 453.153 369.082, 454.690 373.514, 455.172 372.755 C 456.616 370.479, 461.851 353.614, 463.011 347.500 C 463.637 344.200, 465.884 337.897, 468.004 333.492 C 474.159 320.706, 476.127 312.432, 476.727 296.824 C 477.366 280.165, 476.049 270.163, 471.349 256 C 469.433 250.225, 467.616 244.887, 467.311 244.137 C 466.214 241.434, 483.680 252.894, 491.240 259.838 C 492.746 261.222, 494.163 262.162, 494.388 261.927 C 495.054 261.232, 490.165 245.256, 486.848 237.290 C 483.106 228.300, 475.984 217.354, 469.122 210.045 C 466.305 207.045, 464 204.494, 464 204.376 C 464 204.259, 466.920 203.191, 470.489 202.004 C 474.058 200.816, 477.204 199.480, 477.479 199.034 C 477.754 198.588, 472.922 196.984, 466.740 195.468 C 460.558 193.952, 455.361 192.600, 455.191 192.464 C 455.021 192.327, 457.811 187.865, 461.392 182.548 C 472.777 165.639, 477.633 149.024, 476.604 130.500 C 475.949 118.697, 474.396 112.471, 469.575 102.320 C 465.384 93.496, 456.129 83.605, 448.472 79.766 C 437.694 74.363, 425.097 73.691, 413.960 77.924 C 410.957 79.065, 408.387 79.999, 408.250 79.999 C 408.113 80, 408 78.363, 408 76.362 L 408 72.725 402.459 73.376 C 395.825 74.156, 394.647 73.629, 386 66.018 C 359.087 42.327, 331.326 29.080, 293.500 21.877 C 284.785 20.218, 277.722 19.720, 259.500 19.480 C 246.850 19.314, 235.150 19.362, 233.500 19.587 M 82.098 104.659 C 72.519 109.701, 67 120.599, 67 134.471 C 67 151.872, 76.551 170.370, 89.986 178.991 C 95.399 182.465, 105.472 186, 109.956 186 L 112.733 186 112.257 179.250 C 111.828 173.168, 112.258 171.066, 116.608 158 C 122.263 141.011, 122.797 133.596, 119.070 123.812 C 115.014 113.166, 103.020 103.596, 92.172 102.351 C 88.326 101.910, 86.545 102.318, 82.098 104.659 M 412.698 103.444 C 399.337 108.210, 389.763 122.409, 389.735 137.500 C 389.725 143.285, 390.640 147.278, 395.004 160.500 C 399.873 175.249, 400.210 176.871, 399.316 181.250 C 398.347 185.996, 398.349 186, 401.084 186 C 405.276 186, 414.992 182.676, 419.923 179.555 C 430.749 172.704, 438.237 161.351, 442.159 145.841 C 444.346 137.194, 444.295 128.738, 442.007 120.818 C 440.155 114.405, 434.787 107.754, 429.038 104.751 C 423.229 101.716, 418.583 101.345, 412.698 103.444 M 181.577 139.038 C 164.558 143.332, 148.082 153.435, 137.196 166.254 C 131.134 173.392, 125.205 184.629, 124.403 190.500 L 123.857 194.500 128.109 189.500 C 136.128 180.071, 151.502 165.418, 157.492 161.496 C 178.796 147.545, 210.672 145.933, 235.786 157.537 C 245.108 161.844, 252.620 166.568, 253.407 168.618 C 254.255 170.829, 251.053 184.002, 249.670 183.990 C 248.254 183.978, 227.862 177.977, 207.857 171.686 C 193.374 167.132, 175.636 163, 170.568 163 C 168.738 163, 167.681 163.710, 167.054 165.359 C 166.560 166.657, 164.155 168.891, 161.710 170.324 C 153.743 174.993, 144.176 186.481, 136.543 200.544 C 132.086 208.755, 130.019 213.506, 130.791 213.764 C 133.197 214.566, 146.681 223.812, 154.285 229.873 C 161.176 235.367, 162.996 238, 159.902 238 C 159.362 238, 156.651 239.529, 153.877 241.397 L 148.833 244.794 155.160 248.147 C 168.188 255.051, 182 271.569, 182 280.243 C 182 281.851, 181.007 286.842, 179.793 291.333 C 177.956 298.131, 177.582 302.189, 177.559 315.544 L 177.533 331.589 173.783 326.844 C 165.284 316.093, 151.460 307.078, 140.393 305.071 C 134.008 303.914, 125.572 304.908, 119.185 307.570 L 115.870 308.952 119.004 304.995 C 124.058 298.614, 130.016 293.959, 137.500 290.544 C 150.630 284.554, 150.330 284.936, 141.583 285.348 L 133.666 285.721 137.083 282.895 C 141.853 278.950, 150.139 274.679, 159.233 271.476 C 163.486 269.978, 166.758 268.417, 166.504 268.007 C 166.250 267.596, 164.683 266.697, 163.021 266.009 C 161.360 265.321, 160 264.087, 160 263.267 C 160 260.005, 145.023 265.144, 134.443 272.037 C 127.691 276.436, 117.125 286.927, 112.322 294 C 104.910 304.915, 99.015 319.606, 96.976 332.246 C 95.083 343.981, 95.703 344.403, 102.181 335.796 C 107.966 328.108, 113.436 323.098, 120.372 319.136 C 123.097 317.579, 124.080 317.349, 123.692 318.360 C 123.389 319.149, 122.822 323.037, 122.432 326.998 L 121.722 334.201 127.893 329.657 C 131.288 327.159, 134.924 324.841, 135.975 324.508 C 142.244 322.518, 163.615 345.109, 169.334 359.770 C 170.250 362.119, 171 366.311, 171 369.086 C 171 375.322, 171.379 376.040, 181.522 389 C 194.860 406.043, 207.762 417.309, 220.206 422.780 C 232.367 428.126, 251.945 430.873, 264.681 429.021 C 282.951 426.363, 293.332 422.178, 306.768 412.054 C 316.187 404.956, 322.618 398.161, 332.674 384.679 L 340 374.857 340 368.063 C 340 362.299, 340.526 360.225, 343.469 354.384 C 345.377 350.598, 348.947 344.960, 351.401 341.855 C 356.889 334.913, 369.401 324, 371.871 324 C 372.871 324, 376.475 325.800, 379.879 328 C 383.283 330.200, 386.342 332, 386.678 332 C 387.014 332, 387.034 328.632, 386.723 324.515 L 386.157 317.030 390.133 319.265 C 396.119 322.630, 405.176 331.155, 409.580 337.570 C 413.315 343.010, 413.515 343.150, 413.827 340.534 C 414.307 336.493, 411.238 323.585, 407.756 315 C 401.489 299.551, 390.832 284.425, 379.762 275.269 C 373.832 270.363, 362.819 264.641, 355.841 262.838 C 351.292 261.662, 351.095 261.709, 347.575 264.800 C 345.592 266.541, 344.078 268.311, 344.211 268.733 C 344.343 269.155, 348.084 270.866, 352.523 272.536 C 361.310 275.842, 367.820 279.424, 372.500 283.529 C 374.685 285.446, 374.960 285.987, 373.512 285.520 C 372.419 285.168, 368.594 284.624, 365.012 284.312 C 356.990 283.611, 357.680 284.633, 368.142 288.946 C 377.379 292.754, 384.253 297.491, 388.705 303.117 C 390.530 305.423, 391.884 307.449, 391.715 307.619 C 391.545 307.788, 389.403 307.325, 386.953 306.589 C 374.681 302.903, 364.560 304.044, 354.136 310.287 C 348.571 313.621, 336.923 324.275, 333.131 329.500 L 330.955 332.500 331.685 328.500 C 333.293 319.700, 332.395 304.859, 329.548 293.172 C 326.868 282.173, 326.837 281.717, 328.451 277.488 C 332.792 266.122, 342.381 255.040, 353.505 248.535 C 357.077 246.446, 360 244.592, 360 244.416 C 360 244.156, 355.379 240.779, 349.623 236.833 C 347.948 235.684, 366.890 221.133, 376.250 216.379 C 378.863 215.052, 381 213.674, 381 213.316 C 381 212.959, 378.702 208.354, 375.893 203.083 C 366.536 185.523, 359.038 176.765, 347.286 169.665 C 344.372 167.905, 342.242 165.950, 342.488 165.260 C 343.974 161.087, 324.069 164.233, 302.778 171.536 C 280.874 179.050, 259.638 185.033, 258.932 183.889 C 258.582 183.323, 257.733 179.715, 257.046 175.871 C 255.903 169.476, 255.952 168.710, 257.621 166.866 C 260.166 164.054, 280.260 154.329, 287.500 152.406 C 296.828 149.928, 316.973 149.408, 326.766 151.392 C 345.224 155.133, 356.060 161.702, 374.148 180.121 C 381.105 187.204, 387.031 193, 387.318 193 C 388.217 193, 385.877 185.704, 383.423 180.854 C 379.884 173.860, 369.715 161.741, 362.717 156.176 C 354.429 149.585, 345.510 144.811, 334 140.806 C 324.678 137.562, 324.181 137.500, 307.500 137.521 C 290.897 137.541, 290.278 137.618, 281 140.830 C 275.775 142.639, 268.727 145.667, 265.338 147.560 C 261.948 149.452, 258.911 151, 258.588 151 C 258.264 151, 258 148.953, 258 146.450 C 258 142.525, 257.775 142.027, 256.358 142.820 C 255.455 143.325, 253.880 143.520, 252.858 143.253 C 251.265 142.836, 251 143.366, 251 146.967 C 251 149.277, 250.662 150.995, 250.250 150.784 C 243.154 147.166, 231.901 142.267, 226 140.227 C 219.519 137.987, 216.529 137.594, 204 137.337 C 192.107 137.093, 188.075 137.399, 181.577 139.038 M 438.276 207.977 C 436.002 209.995, 431.418 213.097, 428.089 214.872 L 422.036 218.098 429.904 227.013 C 439.326 237.689, 446.020 247.627, 451.098 258.479 C 455.412 267.697, 461.575 287.316, 462.611 295.125 C 463.594 302.539, 464.839 298.888, 464.930 288.322 C 465.107 267.743, 459.613 248.846, 448.307 231.141 C 446.425 228.193, 445.066 225.600, 445.288 225.378 C 446.174 224.493, 463.885 230.339, 469.750 233.452 C 473.188 235.276, 476 236.472, 476 236.108 C 476 235.744, 473.114 231.797, 469.587 227.337 C 463.385 219.493, 453.266 210.499, 445.955 206.330 L 442.409 204.309 438.276 207.977 M 60.012 209.521 C 50.030 216.377, 39.696 227.060, 34.561 235.832 C 34.132 236.564, 35.518 236.072, 37.641 234.738 C 42.337 231.787, 51.329 228.367, 59.249 226.519 L 65.134 225.146 63.465 227.694 C 56.549 238.248, 51.306 249.365, 47.755 261 C 46.270 265.869, 45.647 271.516, 45.274 283.500 C 45.001 292.300, 45.088 299.201, 45.468 298.837 C 45.849 298.472, 46.983 294.422, 47.988 289.837 C 53.240 265.885, 63.837 245.339, 80.670 226.470 C 84.854 221.781, 88.102 217.786, 87.888 217.595 C 87.675 217.403, 85.475 216.239, 83 215.009 C 80.525 213.779, 76.208 211.023, 73.408 208.886 C 70.607 206.749, 67.907 205.015, 67.408 205.032 C 66.908 205.050, 63.581 207.070, 60.012 209.521 M 206.750 207.080 C 202.569 209.515, 206.934 215.108, 211.250 212.847 C 213.432 211.703, 213.547 207.424, 211.418 206.607 C 209.349 205.813, 208.837 205.865, 206.750 207.080 M 299.667 207.667 C 298.513 208.821, 298.941 211.706, 300.452 212.960 C 303.342 215.359, 307.724 212.051, 306.362 208.500 C 305.788 207.004, 300.933 206.400, 299.667 207.667 M 191.177 210.869 C 189.393 212.001, 190.568 218.073, 193.366 222.182 C 197.062 227.610, 200.282 229.334, 206.712 229.328 C 215.808 229.320, 221.552 225.355, 224.477 217.066 C 225.326 214.658, 225.887 212.554, 225.723 212.390 C 225.559 212.226, 223.529 211.788, 221.212 211.418 C 217.186 210.774, 217 210.857, 217 213.300 C 217 217.004, 212.731 220, 207.454 220 C 203.907 220, 202.737 219.476, 200.589 216.923 C 199.165 215.231, 198 212.981, 198 211.923 C 198 210.488, 197.302 210.004, 195.250 210.015 C 193.738 210.024, 191.905 210.408, 191.177 210.869 M 311.503 212.988 C 309.475 222.220, 293 222.437, 293 213.232 C 293 211.058, 292.705 210.904, 289.750 211.538 C 287.962 211.922, 286.149 212.442, 285.719 212.696 C 284.646 213.328, 285.914 220.005, 287.626 222.736 C 292.513 230.532, 307.863 231.927, 314.342 225.165 C 316.960 222.432, 320 215.292, 320 211.874 C 320 210.361, 319.246 210, 316.079 210 C 312.540 210, 312.095 210.290, 311.503 212.988 M 107 217.977 C 100.907 221.997, 95.339 229.142, 93.453 235.361 C 91.822 240.738, 90.186 262, 91.403 262 C 91.789 262, 93.510 258.962, 95.228 255.250 C 96.946 251.537, 100.023 246.009, 102.067 242.964 C 105.829 237.360, 113.173 230, 115.003 230 C 115.551 230, 116 229.496, 116 228.880 C 116 228.131, 114.038 227.902, 110.080 228.188 L 104.161 228.616 106.581 224.058 C 107.913 221.551, 109.731 218.488, 110.623 217.250 C 112.712 214.350, 112.405 214.411, 107 217.977 M 398 215.839 C 398 216.329, 398.850 217.811, 399.889 219.132 C 401.414 221.070, 405 228.362, 405 229.524 C 405 229.678, 402.903 229.173, 400.341 228.402 C 397.779 227.631, 395.304 227, 394.841 227 C 392.795 227, 394.347 229.142, 398.426 231.949 C 403.646 235.540, 411.723 247.127, 415.128 255.909 C 416.427 259.259, 417.830 262, 418.245 262 C 419.278 262, 419.141 251.063, 417.999 242.268 C 416.872 233.596, 414.596 228.826, 408.681 222.740 C 404.264 218.195, 398 214.148, 398 215.839 M 124.707 236.681 C 120.119 239.128, 115.707 242.667, 111.118 247.581 C 99.421 260.105, 93.801 273.890, 92.577 293.058 C 91.897 303.709, 91.925 303.682, 98.019 287.780 C 105.421 268.468, 117.449 253.529, 134.594 242.354 L 143.256 236.707 138.378 234.854 C 135.695 233.835, 133.050 233.014, 132.500 233.030 C 131.950 233.045, 128.443 234.688, 124.707 236.681 M 371 235.121 C 366.928 237.001, 366.679 237.308, 368.384 238.349 C 379.658 245.235, 385.741 249.979, 392.500 257.158 C 401.548 266.767, 407.495 276.522, 413.729 291.975 L 417.974 302.500 417.979 297.500 C 418 278.968, 409.586 258.791, 396.098 245.028 C 390.217 239.027, 380.890 233.010, 377.500 233.031 C 376.400 233.038, 373.475 233.979, 371 235.121 M 226 240.752 C 222.929 242.286, 222.462 243.021, 222.193 246.750 C 221.978 249.714, 221.433 251, 220.393 251 C 214.691 251, 208.668 258.673, 198.627 278.727 C 191.175 293.611, 188.826 302.385, 188.792 315.451 C 188.748 332.492, 192.602 341.787, 204.141 352.470 C 213.731 361.348, 234.469 370, 246.160 370 L 250 370 249.993 364.750 C 249.989 361.863, 249.695 356.422, 249.340 352.661 C 248.606 344.885, 248.926 345.151, 235.463 341.126 C 227.912 338.868, 220.557 334.720, 215.119 329.651 C 206.739 321.841, 199.984 307.080, 200.015 296.645 C 200.033 290.598, 201.912 286.333, 202.062 292 C 202.112 293.925, 202.747 297.300, 203.472 299.500 L 204.790 303.500 204.895 299.250 C 205.081 291.731, 210.294 288.817, 219.963 290.828 C 230.974 293.117, 245.667 302.871, 250.928 311.384 C 254.485 317.138, 253.221 317.357, 247.250 312.021 C 240.719 306.184, 229.270 300.114, 223.274 299.310 C 219.985 298.869, 218.818 299.182, 217.006 300.994 C 215.139 302.861, 214.886 303.889, 215.440 307.360 C 215.804 309.637, 216.861 312.625, 217.789 314 L 219.476 316.500 219.834 314 C 220.639 308.374, 223.681 307.707, 231.640 311.413 C 242.436 316.439, 250.983 328.128, 251.015 337.910 C 251.035 343.794, 252.076 345.449, 255.255 344.651 C 257.478 344.093, 257.774 343.405, 258.229 337.736 C 259.063 327.340, 264.907 318.389, 274.422 312.931 C 277.815 310.985, 280.901 310.016, 283.721 310.009 C 287.636 310.001, 288.008 310.236, 288.843 313.250 L 289.743 316.500 291.850 312 C 296.490 302.087, 293.523 297.388, 284.185 299.860 C 278.371 301.400, 268.036 307.445, 261.750 312.984 C 255.664 318.348, 255.418 316.018, 261.307 308.787 C 269.706 298.475, 287.423 289.012, 295.829 290.347 C 300.261 291.051, 304.956 295.821, 305.100 299.766 L 305.199 302.500 306 300 C 306.440 298.625, 306.859 295.700, 306.931 293.500 C 307.041 290.102, 307.225 289.782, 308.152 291.378 C 308.799 292.493, 309.062 296.361, 308.799 300.903 C 308.226 310.805, 304.121 318.908, 295.027 328.089 C 287.784 335.400, 279.863 339.763, 268.788 342.541 C 258.848 345.034, 259.096 344.632, 258.938 358.500 L 258.801 370.500 262.820 370.241 C 268.747 369.859, 283.453 365.413, 291.832 361.470 C 304.833 355.353, 315.680 342.004, 319.469 327.458 C 323.006 313.879, 320.195 296.683, 311.667 279.738 C 304.017 264.535, 296.325 253.370, 292.043 251.251 C 289.563 250.024, 288.582 248.932, 288.825 247.669 C 289.986 241.643, 275.243 236.340, 269.166 240.597 C 266.189 242.681, 266.641 246.225, 270 247.142 C 277.133 249.088, 278.365 249.582, 278.390 250.500 C 278.404 251.050, 275.530 253.075, 272.002 255 C 262.549 260.158, 257.253 265.563, 256.395 270.929 L 255.698 275.289 253.782 270.151 C 252.276 266.114, 250.648 264.078, 246.183 260.646 C 243.057 258.244, 238.137 255.083, 235.250 253.622 C 232.363 252.162, 230 250.559, 230 250.061 C 230 248.737, 236.413 246.837, 238.360 247.585 C 240.433 248.380, 243 246.360, 243 243.934 C 243 239.281, 232.775 237.367, 226 240.752 M 84.760 344.250 C 81.457 349.303, 78.888 355.320, 77.974 360.138 C 76.741 366.640, 78.145 379.517, 81.023 388.096 C 83.213 394.623, 91.992 408.896, 96.037 412.505 L 98.273 414.500 97.586 409.500 C 97.208 406.750, 96.683 402.925, 96.419 401 C 95.992 397.891, 96.081 397.715, 97.219 399.425 C 97.924 400.484, 101.936 406.559, 106.135 412.925 C 132.162 452.382, 172.596 477.523, 222.895 485.526 L 227.290 486.225 222.821 480.362 C 220.364 477.138, 217.982 473.873, 217.529 473.108 C 215.601 469.848, 227.500 477.874, 240.364 488.512 C 248.122 494.927, 254.729 499.684, 255.364 499.312 C 255.989 498.947, 260.550 495.206, 265.500 490.999 C 273.547 484.161, 283.122 476.790, 286.850 474.564 C 288.710 473.454, 286.706 477.229, 282.771 482.250 L 279.832 486 282.365 486 C 287.643 486, 306.854 481.702, 318.445 477.927 C 357.007 465.370, 390.463 438.779, 410.830 404.500 C 415.336 396.917, 415.578 397.328, 413.624 409.250 C 412.925 413.512, 412.680 417, 413.079 417 C 414.543 417, 423.239 404.270, 427.081 396.500 C 432.125 386.303, 434.296 376.102, 433.787 365 C 433.458 357.834, 432.881 355.480, 430.110 350 C 428.303 346.425, 426.519 343.178, 426.147 342.785 C 425.774 342.391, 425.476 347.791, 425.483 354.785 C 425.491 361.778, 425.098 370.200, 424.611 373.500 L 423.725 379.500 422.292 376 C 420.312 371.162, 414.747 362, 413.789 362 C 413.355 362, 413 362.597, 413 363.327 C 413 365.810, 406.774 383.473, 403.331 390.759 C 394.971 408.448, 377.498 429.147, 360.206 441.846 C 345.185 452.877, 326.161 462.651, 305.557 469.923 L 296.952 472.961 300.802 467.230 C 302.919 464.079, 304.969 460.958, 305.357 460.295 C 306.431 458.460, 296.871 461.488, 287.899 465.826 L 280.298 469.500 281.125 466 C 281.580 464.075, 281.963 461.680, 281.976 460.677 C 281.999 458.930, 281.901 458.933, 279.609 460.735 C 278.295 461.769, 272.176 468.102, 266.013 474.808 C 259.850 481.514, 254.386 487, 253.870 487 C 253.354 487, 247.885 481.793, 241.717 475.429 C 235.549 469.065, 228.990 462.704, 227.142 461.295 L 223.782 458.732 224.466 462.116 C 224.842 463.977, 225.372 466.291, 225.644 467.257 C 226.098 468.869, 225.861 468.851, 222.799 467.044 C 219.049 464.832, 212.819 462.436, 205.765 460.493 C 201.063 459.198, 201.039 459.204, 202.163 461.345 C 202.786 462.530, 204.634 465.460, 206.269 467.856 C 209.779 472.999, 210.188 473.020, 195.500 467.290 C 154.579 451.326, 119.802 420.292, 106.202 387.604 C 104.805 384.247, 102.230 376.856, 100.481 371.179 L 97.300 360.858 94.298 365.679 C 92.647 368.331, 90.708 372.075, 89.988 374 C 89.268 375.925, 88.344 377.885, 87.935 378.355 C 86.760 379.703, 85.738 365.186, 86.153 353.054 C 86.362 346.974, 86.464 342, 86.381 342 C 86.298 342, 85.568 343.012, 84.760 344.250 M 184.573 360.218 C 182.278 365.643, 182.560 367.243, 187.129 374.732 C 199.073 394.311, 211.854 405.726, 229.010 412.138 C 244.466 417.914, 268.708 417.198, 285.247 410.478 C 297.982 405.303, 311.376 393.026, 320.278 378.368 C 322.907 374.041, 325.552 369.796, 326.157 368.935 C 326.994 367.743, 326.744 366.209, 325.107 362.509 L 322.957 357.649 319.375 361.075 C 317.404 362.959, 313.522 367.841, 310.748 371.925 C 301.113 386.106, 291.882 393.282, 277 398.159 C 268.697 400.879, 266.051 401.281, 256 401.345 C 242.505 401.431, 235.491 399.861, 223.198 394 C 213.456 389.356, 205.110 381.924, 197.932 371.500 C 195.281 367.650, 191.545 362.700, 189.629 360.500 L 186.146 356.500 184.573 360.218 M 214.570 376.467 C 216.629 379.610, 218.108 380.057, 221.050 378.427 C 222.398 377.681, 223.275 377.050, 223 377.025 C 222.725 376.999, 220.367 376.331, 217.760 375.540 L 213.021 374.102 214.570 376.467 M 290 376.010 L 285.500 377.813 288.500 378.985 C 291.814 380.278, 293.505 379.631, 295.787 376.195 C 297.603 373.459, 296.459 373.423, 290 376.010 M 226 378.625 C 226 378.843, 226.952 381.046, 228.115 383.521 C 229.434 386.327, 231.033 388.190, 232.365 388.473 C 245.018 391.163, 252.141 392.098, 257.328 391.751 C 263.293 391.353, 275.926 388.634, 279 387.087 C 280.902 386.130, 284.672 379.338, 283.790 378.457 C 283.426 378.092, 280.062 378.853, 276.314 380.147 C 270.312 382.220, 267.773 382.489, 255 382.409 C 243.634 382.337, 238.933 381.876, 233.250 380.273 C 229.262 379.149, 226 378.407, 226 378.625 M 418.594 420.878 C 418.985 421.770, 419.510 423.962, 419.762 425.750 C 420.216 428.977, 422 430.372, 422 427.500 C 422 426.675, 422.450 426, 423 426 C 423.550 426, 424 426.675, 424 427.500 C 424 429.811, 425.693 429.275, 426.370 426.750 C 427.510 422.496, 427.114 419.019, 425.558 419.616 C 424.766 419.920, 423.927 421.144, 423.695 422.335 L 423.272 424.500 423.136 422.367 C 423.044 420.925, 422.171 420.075, 420.442 419.744 C 418.368 419.348, 418.018 419.562, 418.594 420.878" stroke="none" fill="black" fill-rule="evenodd"/>
</svg>