<?xml version="1.0" encoding="UTF-8" standalone="no"?>
<!-- Created with Inkscape (http://www.inkscape.org/) -->

<svg width="400" height="600" viewBox="0 0 400 600" version="1.1" id="svg1"
   inkscape:version="1.3.2 (1:1.3.2+202311252150+091e20ef0f)" sodipodi:docname="my_person.svg"
   inkscape:export-filename="my_person222.svg" inkscape:export-xdpi="96" inkscape:export-ydpi="96"
   xmlns:inkscape="http://www.inkscape.org/namespaces/inkscape"
   xmlns:sodipodi="http://sodipodi.sourceforge.net/DTD/sodipodi-0.dtd" xmlns:xlink="http://www.w3.org/1999/xlink"
   xmlns="http://www.w3.org/2000/svg" xmlns:svg="http://www.w3.org/2000/svg">
   <sodipodi:namedview id="namedview1" pagecolor="#ffffff" bordercolor="#ffffff" borderopacity="1"
      inkscape:showpageshadow="false" inkscape:pageopacity="0" inkscape:pagecheckerboard="false"
      inkscape:deskcolor="#252525" inkscape:document-units="px" inkscape:zoom="1.1389058" inkscape:cx="142.2418"
      inkscape:cy="324.43422" inkscape:window-width="1866" inkscape:window-height="1011" inkscape:window-x="54"
      inkscape:window-y="32" inkscape:window-maximized="1" inkscape:current-layer="g76" showborder="false"
      labelstyle="default" showguides="true" showgrid="true">
      <inkscape:grid id="grid5" units="px" originx="0" originy="0" spacingx="25" spacingy="25" empcolor="#000000"
         empopacity="0.65490196" color="#000000" opacity="0.20392157" empspacing="4" dotted="false" gridanglex="30"
         gridanglez="30" visible="true" />
   </sodipodi:namedview>
   <defs id="defs1">
      <inkscape:path-effect effect="powerstroke" id="path-effect38" is_visible="true" lpeversion="1.3" scale_width="1"
         interpolator_type="CentripetalCatmullRom" interpolator_beta="0.75" start_linecap_type="round"
         end_linecap_type="round" offset_points="11.539692,8.8931354" linejoin_type="spiro" miter_limit="4"
         not_jump="true" sort_points="true" message="&lt;b&gt;Ctrl + click&lt;/b&gt; on existing node and move it" />
      <inkscape:path-effect effect="simplify" id="path-effect36" is_visible="true" lpeversion="1.3" threshold="0.012"
         steps="1" smooth_angles="0" helper_size="0" simplify_individual_paths="false" simplify_just_coalesce="false"
         step="1" />
      <inkscape:path-effect effect="powerstroke" id="path-effect34" is_visible="true" lpeversion="1.3" scale_width="1"
         interpolator_type="CentripetalCatmullRom" interpolator_beta="0.75" start_linecap_type="round"
         end_linecap_type="round" offset_points="11.539692,8.8931354" linejoin_type="spiro" miter_limit="4"
         not_jump="true" sort_points="true" message="&lt;b&gt;Ctrl + click&lt;/b&gt; on existing node and move it" />
      <inkscape:path-effect effect="simplify" id="path-effect32" is_visible="true" lpeversion="1.3" threshold="0.012"
         steps="1" smooth_angles="0" helper_size="0" simplify_individual_paths="false" simplify_just_coalesce="false"
         step="1" />
      <inkscape:path-effect effect="powerstroke" id="path-effect30" is_visible="true" lpeversion="1.3" scale_width="1"
         interpolator_type="CentripetalCatmullRom" interpolator_beta="0.75" start_linecap_type="round"
         end_linecap_type="round" offset_points="13.564786,8.8931354" linejoin_type="spiro" miter_limit="4"
         not_jump="true" sort_points="true" message="&lt;b&gt;Ctrl + click&lt;/b&gt; on existing node and move it" />
      <inkscape:path-effect effect="simplify" id="path-effect29" is_visible="true" lpeversion="1.3" threshold="0.012"
         steps="1" smooth_angles="0" helper_size="0" simplify_individual_paths="false" simplify_just_coalesce="false"
         step="1" />
      <inkscape:path-effect effect="powerstroke" id="path-effect28" is_visible="true" lpeversion="1.3" scale_width="1"
         interpolator_type="CentripetalCatmullRom" interpolator_beta="0.75" start_linecap_type="round"
         end_linecap_type="round" offset_points="11.539692,8.8931354" linejoin_type="spiro" miter_limit="4"
         not_jump="true" sort_points="true" message="&lt;b&gt;Ctrl + click&lt;/b&gt; on existing node and move it" />
      <inkscape:path-effect effect="simplify" id="path-effect27" is_visible="true" lpeversion="1.3" threshold="0.012"
         steps="1" smooth_angles="0" helper_size="0" simplify_individual_paths="false" simplify_just_coalesce="false"
         step="1" />
      <inkscape:path-effect effect="powerstroke" id="path-effect26" is_visible="true" lpeversion="1.3" scale_width="1"
         interpolator_type="CentripetalCatmullRom" interpolator_beta="0.75" start_linecap_type="round"
         end_linecap_type="round" offset_points="6.4829019,8.8931354" linejoin_type="spiro" miter_limit="4"
         not_jump="true" sort_points="true" message="&lt;b&gt;Ctrl + click&lt;/b&gt; on existing node and move it" />
      <inkscape:path-effect effect="simplify" id="path-effect25" is_visible="true" lpeversion="1.3" threshold="0.012"
         steps="1" smooth_angles="0" helper_size="0" simplify_individual_paths="false" simplify_just_coalesce="false"
         step="1" />
      <inkscape:path-effect effect="powerstroke" id="path-effect24" is_visible="true" lpeversion="1.3" scale_width="1"
         interpolator_type="CentripetalCatmullRom" interpolator_beta="0.75" start_linecap_type="round"
         end_linecap_type="round" offset_points="8.8846362,13.518055" linejoin_type="spiro" miter_limit="4"
         not_jump="true" sort_points="true" message="&lt;b&gt;Ctrl + click&lt;/b&gt; on existing node and move it" />
      <inkscape:path-effect effect="simplify" id="path-effect23" is_visible="true" lpeversion="1.3" threshold="0.012"
         steps="1" smooth_angles="0" helper_size="0" simplify_individual_paths="false" simplify_just_coalesce="false"
         step="1" />
      <inkscape:path-effect effect="powerstroke" id="path-effect11" is_visible="true" lpeversion="1.3"
         scale_width="3.2374101" interpolator_type="CentripetalCatmullRom" interpolator_beta="0.097122302"
         start_linecap_type="zerowidth" end_linecap_type="zerowidth"
         offset_points="0.22635685,0.85869704 | 0.48180361,0.83977719 | 0.76985504,0.25190697" linejoin_type="round"
         miter_limit="4" not_jump="false" sort_points="true"
         message="&lt;b&gt;Ctrl + click&lt;/b&gt; on existing node and move it" />
      <inkscape:path-effect effect="powerstroke" id="path-effect9" is_visible="true" lpeversion="1.3"
         scale_width="3.2374101" interpolator_type="CentripetalCatmullRom" interpolator_beta="0.097122302"
         start_linecap_type="zerowidth" end_linecap_type="zerowidth"
         offset_points="0.22635685,0.85869704 | 0.48180361,0.83977719 | 0.76985504,0.25190697" linejoin_type="round"
         miter_limit="4" not_jump="false" sort_points="true"
         message="&lt;b&gt;Ctrl + click&lt;/b&gt; on existing node and move it" />
      <linearGradient id="linearGradient3" inkscape:collect="always">
         <stop style="stop-color:#913900;stop-opacity:1;" offset="0" id="stop3" />
         <stop style="stop-color:#7c3200;stop-opacity:1;" offset="1" id="stop4" />
      </linearGradient>
      <inkscape:path-effect effect="powerstroke" id="path-effect3" is_visible="true" lpeversion="1.3"
         scale_width="3.2374101" interpolator_type="CentripetalCatmullRom" interpolator_beta="0.097122302"
         start_linecap_type="zerowidth" end_linecap_type="zerowidth"
         offset_points="0.22635685,0.85869704 | 0.48180361,0.83977719 | 0.76985504,0.25190697" linejoin_type="round"
         miter_limit="4" not_jump="false" sort_points="true"
         message="&lt;b&gt;Ctrl + click&lt;/b&gt; on existing node and move it" />
      <linearGradient id="linearGradient76" inkscape:collect="always">
         <stop style="stop-color:#007e00;stop-opacity:1;" offset="0" id="stop77" />
         <stop style="stop-color:#004c00;stop-opacity:1;" offset="1" id="stop78" />
      </linearGradient>
      <linearGradient id="linearGradient69" inkscape:collect="always">
         <stop style="stop-color:#ffffff;stop-opacity:1;" offset="0.6795795" id="stop69" />
         <stop style="stop-color:#e3e3e3;stop-opacity:1;" offset="1" id="stop70" />
      </linearGradient>
      <linearGradient id="linearGradient31-1" inkscape:label="skin">
         <stop style="stop-color:#ffb173;stop-opacity:1;" offset="0" id="stop31" />
         <stop style="stop-color:#ffa870;stop-opacity:1;" offset="0.25" id="stop33" />
         <stop style="stop-color:#ffa267;stop-opacity:1;" offset="0.5" id="stop34" />
         <stop style="stop-color:#ffab76;stop-opacity:1;" offset="0.75" id="stop35" />
         <stop style="stop-color:#ffac77;stop-opacity:1;" offset="1" id="stop32" />
      </linearGradient>
      <inkscape:path-effect effect="bspline" id="path-effect22" is_visible="true" lpeversion="1.3" weight="33.333333"
         steps="2" helper_size="0" apply_no_weight="true" apply_with_weight="true" only_selected="false"
         uniform="false" />
      <inkscape:path-effect effect="powerstroke" id="path-effect21" is_visible="true" lpeversion="1.3"
         scale_width="3.2374101" interpolator_type="CentripetalCatmullRom" interpolator_beta="0.097122302"
         start_linecap_type="zerowidth" end_linecap_type="zerowidth"
         offset_points="0.22635685,0.85869704 | 0.48180361,0.83977719 | 0.76985504,0.25190697" linejoin_type="round"
         miter_limit="4" not_jump="false" sort_points="true"
         message="&lt;b&gt;Ctrl + click&lt;/b&gt; on existing node and move it" />
      <inkscape:path-effect effect="powerstroke" id="path-effect19" is_visible="true" lpeversion="1.3"
         scale_width="3.2374101" interpolator_type="CentripetalCatmullRom" interpolator_beta="0.097122302"
         start_linecap_type="zerowidth" end_linecap_type="zerowidth"
         offset_points="0.22635685,0.85869704 | 0.48180361,0.83977719 | 0.76985504,0.25190697" linejoin_type="round"
         miter_limit="4" not_jump="false" sort_points="true"
         message="&lt;b&gt;Ctrl + click&lt;/b&gt; on existing node and move it" />
      <inkscape:path-effect effect="bspline" id="path-effect17" is_visible="true" lpeversion="1.3" weight="33.333333"
         steps="2" helper_size="0" apply_no_weight="true" apply_with_weight="true" only_selected="false"
         uniform="false" />
      <radialGradient inkscape:collect="always" xlink:href="#linearGradient31-1" id="radialGradient57" cx="200" cy="250"
         fx="200" fy="250" r="100" gradientTransform="matrix(1,0,0,1.5,0,-125)" gradientUnits="userSpaceOnUse" />
      <filter inkscape:collect="always" style="color-interpolation-filters:sRGB" id="filter69" x="-0.095728071"
         y="-0.095728071" width="1.1914561" height="1.1914561">
         <feGaussianBlur inkscape:collect="always" stdDeviation="2.4506253" id="feGaussianBlur69" />
      </filter>
      <radialGradient inkscape:collect="always" xlink:href="#linearGradient69" id="radialGradient70" cx="150" cy="225"
         fx="150" fy="225" r="25" gradientUnits="userSpaceOnUse" />
      <linearGradient inkscape:collect="always" xlink:href="#linearGradient76" id="linearGradient78" x1="150"
         y1="235.03743" x2="150" y2="215.24875" gradientUnits="userSpaceOnUse" spreadMethod="pad"
         gradientTransform="matrix(0.56452105,0,0,0.56452105,65.321837,97.982757)" />
      <filter inkscape:collect="always" style="color-interpolation-filters:sRGB" id="filter3" x="-0.13860143"
         y="-1.0571901" width="1.2772029" height="3.1143803">
         <feGaussianBlur inkscape:collect="always" stdDeviation="2.8093031" id="feGaussianBlur3" />
      </filter>
      <radialGradient inkscape:collect="always" xlink:href="#linearGradient3" id="radialGradient4" cx="150.67728"
         cy="186.27728" fx="150.67728" fy="186.27728" r="24.32272"
         gradientTransform="matrix(1,0,0,0.13110359,0,161.85566)" gradientUnits="userSpaceOnUse" />
      <radialGradient inkscape:collect="always" xlink:href="#linearGradient3" id="radialGradient11"
         gradientUnits="userSpaceOnUse" gradientTransform="matrix(1,0,0,0.13110359,0,161.85566)" cx="150.67728"
         cy="186.27728" fx="150.67728" fy="186.27728" r="24.32272" />
      <clipPath clipPathUnits="userSpaceOnUse" id="clipPath60">
         <path id="path61" style="fill:#ff0000;fill-opacity:1;fill-rule:nonzero;stroke:none"
            d="m 125,200 v 31.1582 c 0.0211,-0.0167 0.0354,-0.0261 0.0566,-0.043 0.0248,-0.0197 0.0502,-0.0317 0.0762,-0.0351 0.18152,-0.0243 0.38723,0.31019 0.56446,0.44336 0.26214,0.19697 0.5037,0.41132 0.73828,0.63281 0.0599,0.0384 0.1196,0.0767 0.18359,0.10742 0.49563,0.2376 1.08368,0.3351 1.61133,0.46875 1.01819,0.29162 2.08373,0.38072 3.10547,0.65625 0.81358,0.2194 1.61596,0.47766 2.41601,0.74219 0.51315,0.16966 1.00199,0.41147 1.52149,0.56055 0.8826,0.25329 2.23309,0.6045 3.65234,0.96875 2.31587,0.25117 4.81704,0.53079 5.20703,0.57422 0.15812,-0.34425 0.33693,-0.72487 0.59961,-1.26368 0.22324,-0.4579 0.36257,-1.00126 0.75,-1.33203 1.60511,-1.37034 4.5649,-3.00922 6.60352,-3.83594 0.64449,-0.26136 1.33743,-0.38415 2.00586,-0.57617 1.40385,0.32437 0.75493,0.23512 2.19336,0.32422 0.39215,0.0243 0.78498,0.0552 1.17773,0.0664 0.12621,0.004 0.25262,0.004 0.37891,0.002 0.13798,-0.0507 0.25505,-0.0474 0.55468,-0.0644 0.0931,0.65332 0.32135,1.30052 0.27735,1.95898 -0.009,0.1397 -0.2743,0.0604 -0.41406,0.0684 -0.009,5e-4 -0.0205,-4.7e-4 -0.0293,0 0.0298,0.0131 0.066,0.0254 0.0625,0.0508 -0.009,0.0641 -0.0851,0.0988 -0.13281,0.14258 -0.0971,0.0892 -0.19578,0.17656 -0.29297,0.26563 0.48838,-0.19221 0.98053,-0.37701 1.46484,-0.57813 0.69955,-0.21679 1.38706,-0.4731 2.09766,-0.65039 0.43475,-0.1085 0.88291,-0.23162 1.33008,-0.20312 0.30966,0.0198 0.61594,0.14121 0.87695,0.3125 0.27118,-0.0845 0.54866,-0.15375 0.81445,-0.25391 0.0752,-0.0283 0.13563,-0.0854 0.20313,-0.12891 l -0.002,-0.002 c 1.64491,-1.05872 2.71521,0.60339 1.07032,1.66211 -0.0675,0.0435 -0.12883,0.10046 -0.20313,0.13086 -0.74379,0.30417 -1.50877,0.55451 -2.2793,0.78906 -0.10839,0.13301 -0.21641,0.26655 -0.32617,0.39844 -0.59509,0.7151 -0.48173,0.55337 -1.35937,1.45312 -0.47708,0.46347 -0.94829,0.93482 -1.41211,1.41211 0.0316,0.28125 -0.0439,0.69294 -0.25977,1.32813 -0.037,0.10901 -0.47555,0.31069 -0.87304,0.48242 0.001,0.002 0.006,0.007 -0.008,0.002 -0.10177,0.0439 -0.19223,0.0847 -0.27343,0.11914 0.20932,0.50988 0.17269,0.46267 -0.25196,0.77344 2.0423,-0.74806 4.09603,-1.46694 6.11328,-2.2793 0.41038,-0.16525 0.76425,-0.44583 1.14454,-0.67187 0.55316,-0.32881 1.10623,-0.65814 1.65624,-0.99219 0.67785,-0.41166 1.18757,-0.76227 1.67188,-0.99219 0.62502,-0.55433 1.34841,-1.00396 1.57617,-0.9375 1.60051,0.46703 3.19527,1.37093 4.22071,2.68555 0.0908,0.11643 0.12705,0.24691 0.14062,0.38281 V 200 Z m 37.96484,30.94531 c -0.0424,0.002 -0.19692,0.0491 -0.26172,0.0606 -0.12188,0.10887 -0.2255,0.18802 -0.30859,0.25781 0.1933,-0.0942 0.38942,-0.18193 0.56641,-0.30273 0.0181,-0.0124 0.018,-0.0164 0.004,-0.0156 z m -8.34179,0.1836 c -2.34302,0.63189 -1.7696,0.36817 -4.4961,1.80664 -0.99427,0.52456 -2.04484,0.97743 -2.92578,1.67578 -0.35203,0.27905 -0.46753,0.76888 -0.66601,1.17187 -0.16899,0.3431 -0.26476,0.55114 -0.38477,0.80274 0.09,0.019 0.11112,0.021 0.22266,0.0449 -0.0237,-0.003 -0.0504,-0.008 -0.0606,0.002 -0.0164,0.0163 -0.0307,0.0361 -0.0469,0.0527 0.0136,-0.002 0.0274,-0.004 0.041,-0.006 0.64837,-0.0988 2.25605,-0.27065 3.88672,-0.35157 0.657,-0.53527 1.07695,-0.94441 3.36523,-3.02929 0.67214,-0.61239 1.34382,-1.22515 2.01563,-1.83789 -0.42514,-0.0452 -0.84994,-0.0967 -1.26172,-0.20703 -0.10777,-0.0289 0.20703,-0.0834 0.31055,-0.125 z m 16.00976,2.32812 c -0.30662,0.007 -0.60039,0.20143 -0.88867,0.45899 0.83974,-0.16662 1.83217,0.16075 3.61133,1.25586 -0.54343,-0.61799 -1.35042,-1.18711 -2.38672,-1.64649 -0.11397,-0.0505 -0.22585,-0.0709 -0.33594,-0.0684 z m -11.17578,0.81641 c -0.56,0.2137 -1.114,0.44273 -1.67187,0.66211 -0.48095,0.21198 -0.97762,0.39314 -1.44336,0.63672 -0.25783,0.13483 -0.51408,0.27285 -0.76953,0.41211 0.44094,-0.12707 0.88431,-0.24501 1.33593,-0.32227 0.42358,-0.0725 0.85432,-0.0831 1.28516,-0.0918 0.41545,-0.43787 0.83645,-0.87052 1.26367,-1.29687 z m 8.83203,1.9082 c -0.007,0.0449 -0.0152,0.10612 -0.0215,0.14648 0.009,-0.0109 0.05,-0.0539 0.0586,-0.0645 -0.0127,-0.0276 -0.0246,-0.0545 -0.0371,-0.082 z M 175,236.49805 c -0.0571,0.51606 -0.43367,1.11263 -0.52344,1.63672 -0.37102,0.60336 -0.69096,1.2419 -1.11328,1.81054 -0.25045,0.33722 -0.51773,0.66104 -0.79101,0.98047 0.31775,0.4072 0.2627,0.77773 -0.26368,1.36328 0.0666,0.15092 0.13616,0.293 0.19922,0.45508 0.19573,0.50303 -0.57057,0.92367 -0.92578,1.33008 -0.31134,0.3562 -0.70319,0.63335 -1.06055,0.94336 -1.74605,1.51472 -1.35136,1.17572 -2.97851,2.45703 -0.79229,0.47021 -1.56503,0.97476 -2.37695,1.41016 -0.15349,0.0823 -0.36182,0.23266 -0.50586,0.13476 -0.10947,-0.0744 0.38614,-0.32799 0.25586,-0.30469 -0.96657,0.17325 -2.07584,1.37958 -2.84375,0.76758 -0.83991,-0.66934 -1.43467,-1.20576 -1.84961,-1.66601 -0.42796,0.33646 -0.93513,0.59685 -1.45118,0.85156 -1.34336,0.57498 -2.73753,0.99823 -4.15625,1.33203 H 175 Z m -17.88477,0.23633 c -0.0182,0.0135 -0.0369,0.0264 -0.0351,0.043 0.0113,-0.0147 0.0235,-0.0285 0.0351,-0.043 z m 11.46289,0.0449 c 6.5e-4,0.25923 0.0971,0.46405 0.3379,0.67773 0.0139,0.004 0.0286,0.009 0.043,0.0137 -0.13603,-0.22607 -0.26142,-0.45746 -0.38086,-0.6914 z m -11.68359,0.90625 c -0.17244,0.0426 -0.39658,0.10601 -0.60937,0.16406 0.0172,0.1838 0.038,0.36801 0.0645,0.55273 0.16151,-0.16186 0.31895,-0.32684 0.46094,-0.50586 0.0476,-0.06 0.0689,-0.13417 0.084,-0.21093 z m 1.70117,0.47851 c -0.0245,0.0195 -0.0491,0.04 -0.0801,0.0625 0.001,0.002 0.003,0.002 0.004,0.004 0.0216,0.026 0.0541,-0.0408 0.0762,-0.0664 z m 15.15235,0.0606 c -0.30552,0.26395 -0.60366,0.60495 -0.9043,0.91406 0.12829,-0.0882 0.25085,-0.18857 0.35156,-0.27929 0.22747,-0.20497 0.40886,-0.41711 0.55274,-0.63477 z m -3.53321,0.0254 c 0.0796,0.0423 0.21379,0.11064 0.30078,0.15625 -0.0422,-0.11196 -0.16578,-0.13881 -0.30078,-0.15625 z M 125,242.34375 V 250 h 6.07227 c -0.20707,-0.80433 -0.19363,-1.31164 0.0391,-1.65625 -0.19291,-0.0185 -0.17702,-0.0186 -0.4668,-0.041 -0.55495,-0.25336 -1.16556,-0.40812 -1.66406,-0.75976 -1.32766,-0.93653 -1.81926,-1.67352 -2.54688,-2.99609 -0.52198,-0.94881 -0.82085,-1.49547 -1.04297,-2.05274 -0.15357,-0.0531 -0.26319,-0.10066 -0.39062,-0.15039 z m 40.20898,4.32813 c -0.14607,0.0503 -0.25881,0.0895 -0.46679,0.1621 -0.17432,0.0609 -0.34423,0.11309 -0.51172,0.16016 -0.0539,0.15398 -0.10975,0.30686 -0.1582,0.46289 -0.0198,0.0636 0.66626,0.0217 1.17773,-0.24219 -0.004,-0.16625 -0.0166,-0.34788 -0.041,-0.54296 z" />
      </clipPath>
      <radialGradient inkscape:collect="always" xlink:href="#linearGradient69" id="radialGradient76"
         gradientUnits="userSpaceOnUse" cx="150" cy="225" fx="150" fy="225" r="25" />
      <linearGradient inkscape:collect="always" xlink:href="#linearGradient76" id="linearGradient77"
         gradientUnits="userSpaceOnUse" gradientTransform="matrix(0.56452105,0,0,0.56452105,65.321837,97.982757)"
         x1="150" y1="235.03743" x2="150" y2="215.24875" spreadMethod="pad" />
   </defs>
   <g inkscape:groupmode="layer" id="layer4" inkscape:label="shoulders" sodipodi:insensitive="true">
      <path id="path41"
         style="font-variation-settings:normal;opacity:1;vector-effect:none;fill:#ffccaa;fill-opacity:1;stroke:#000000;stroke-width:1.00157;stroke-linecap:butt;stroke-linejoin:miter;stroke-miterlimit:4;stroke-dasharray:none;stroke-dashoffset:0;stroke-opacity:0.164565;-inkscape-stroke:none;stop-color:#000000;stop-opacity:1"
         inkscape:label="shoulders"
         d="m 250,475 c 0,0 25,32.7711 50,25 0,0 42.58381,-11.21792 50,0 7.41619,11.21792 25,75 25,100 H 200 V 475 Z m -100,0 c 0,0 -25,32.7711 -50,25 0,0 -42.583806,-11.21792 -50,0 -7.416194,11.21792 -25,75 -25,100 H 200 V 475 Z" />
   </g>
   <g inkscape:groupmode="layer" id="layer7" inkscape:label="t-shirt" sodipodi:insensitive="true">
      <path id="path40"
         style="font-variation-settings:normal;opacity:1;vector-effect:none;fill:#394e85;fill-opacity:1;stroke:none;stroke-width:1.00157;stroke-linecap:butt;stroke-linejoin:miter;stroke-miterlimit:4;stroke-dasharray:none;stroke-dashoffset:0;stroke-opacity:0.164565;-inkscape-stroke:none;stop-color:#000000;stop-opacity:1"
         inkscape:label="t-shirt"
         d="m 300,500 c 0,0 42.58381,-11.21792 50,0 7.41619,11.21792 25,75 25,100 H 200 V 531.26038 C 287.57812,525 260.83061,512.17557 300,500 Z m -200,0 c 0,0 -42.583806,-11.21792 -50,0 -7.416194,11.21792 -25,75 -25,100 H 200 V 531.26038 C 175,534.42083 136.95687,510.16435 100,500 Z"
         sodipodi:nodetypes="cscccccscccc" />
   </g>
   <g inkscape:groupmode="layer" id="layer3" inkscape:label="neck" style="fill:#ffccaa;fill-opacity:1;stroke:none"
      sodipodi:insensitive="true">
      <path
         style="font-variation-settings:normal;opacity:1;vector-effect:none;fill:#ffccaa;fill-opacity:1;stroke:#000000;stroke-width:1.00157;stroke-linecap:butt;stroke-linejoin:miter;stroke-miterlimit:4;stroke-dasharray:none;stroke-dashoffset:0;stroke-opacity:0.164565;-inkscape-stroke:none;stop-color:#000000;stop-opacity:1"
         d="M 172.78345,376.09107 C 170.65216,376.84243 184.67169,399.15813 150,475 h 100 c 3.81621,1.35935 -12.43347,-25 -25,-100 z"
         id="path11" sodipodi:nodetypes="ccccc" />
   </g>
   <g inkscape:label="head" inkscape:groupmode="layer" id="layer1"
      style="display:inline;fill:url(#radialGradient57);fill-opacity:1" sodipodi:insensitive="true">
      <path
         style="mix-blend-mode:normal;fill:#ffccaa;fill-opacity:1;stroke:#000000;stroke-width:1.00157;stroke-linecap:butt;stroke-linejoin:miter;stroke-dasharray:none;stroke-opacity:0.164565"
         d="m 200,100 c 0,0 -100,0 -100,100 0,100 0,100 0,100 0,0 0,100 100,100 100,0 100,-100 100,-100 V 200 c 0,0 0,-100 -100,-100 z"
         id="path5" />
   </g>
   <g inkscape:groupmode="layer" id="layer5" inkscape:label="forehead" sodipodi:insensitive="true">
      <path style="fill:none;stroke:#000000;stroke-width:1px;stroke-linecap:butt;stroke-linejoin:miter;stroke-opacity:1"
         d="m 150,150.56163 c 0,0 50.54197,-24.84697 100,-0.56163" id="path17" />
      <path style="fill:none;stroke:#000000;stroke-width:1px;stroke-linecap:butt;stroke-linejoin:miter;stroke-opacity:1"
         d="m 150,158.56163 c 0,0 50.54197,-24.84697 100,-0.56163" id="path20" />
      <path style="fill:none;stroke:#000000;stroke-width:1px;stroke-linecap:butt;stroke-linejoin:miter;stroke-opacity:1"
         d="m 150,142.56163 c 0,0 50.54197,-24.84697 100,-0.56163" id="path19" inkscape:label="path19" />
   </g>
   <g inkscape:groupmode="layer" id="layer2" inkscape:label="ear left" style="fill:#000000;stroke:none"
      sodipodi:insensitive="true">
      <path
         style="font-variation-settings:normal;opacity:1;vector-effect:none;fill:#ffccaa;fill-opacity:1;stroke:#000000;stroke-width:1.00157;stroke-linecap:butt;stroke-linejoin:miter;stroke-miterlimit:4;stroke-dasharray:none;stroke-dashoffset:0;stroke-opacity:0.164565;-inkscape-stroke:none;stop-color:#000000;stop-opacity:1"
         d="m 100,225 c 0,0 -7.734665,-10.9079 -14.933685,-7.9264 C 80.263706,219.06261 74.38911,233.64104 75,238.28783 79.025218,268.90602 101.07013,255.85982 100,250 Z"
         id="path6" sodipodi:nodetypes="csscc" sodipodi:insensitive="true" />
   </g>
   <g inkscape:groupmode="layer" id="g7" inkscape:label="ear right" style="fill:#000000;stroke:none"
      sodipodi:insensitive="true">
      <path
         style="font-variation-settings:normal;opacity:1;vector-effect:none;fill:#ffccaa;fill-opacity:1;stroke:#000000;stroke-width:1.00157;stroke-linecap:butt;stroke-linejoin:miter;stroke-miterlimit:4;stroke-dasharray:none;stroke-dashoffset:0;stroke-opacity:0.164565;-inkscape-stroke:none;stop-color:#000000;stop-opacity:1"
         d="m 300,225 c 0,0 7.73467,-10.9079 14.93368,-7.9264 4.80261,1.98901 10.67721,16.56744 10.06632,21.21423 -4.02522,30.61819 -26.07013,17.57199 -25,11.71217 z"
         id="path7" sodipodi:nodetypes="csscc" sodipodi:insensitive="true" />
   </g>
   <g inkscape:groupmode="layer" id="layer6" inkscape:label="eye left" sodipodi:insensitive="true">
      <circle
         style="display:inline;opacity:0.713446;mix-blend-mode:normal;fill:#000000;fill-opacity:0.0922403;stroke:none;stroke-width:2.28033;stroke-opacity:1;filter:url(#filter69)"
         id="circle67" cx="150" cy="225" r="30.719831" inkscape:label="shadow"
         transform="matrix(0.90690327,0,0,0.90690327,13.964509,20.946764)" sodipodi:insensitive="true" />
      <circle style="opacity:1;fill:url(#radialGradient70);stroke:none;stroke-width:1.85575;stroke-opacity:1"
         id="path10" cx="150" cy="225" r="25" inkscape:label="ball" sodipodi:insensitive="true" />
      <circle
         style="opacity:1;fill:url(#linearGradient78);fill-opacity:1;fill-rule:evenodd;stroke:none;stroke-width:0.523805;stroke-opacity:1"
         id="circle70" cx="150" cy="225" r="7.0565133" inkscape:label="iris" sodipodi:insensitive="true" />
      <circle
         style="opacity:1;fill:#000000;fill-opacity:1;fill-rule:evenodd;stroke:none;stroke-width:0.309215;stroke-opacity:1"
         id="circle78" cx="150" cy="225" r="4.1656394" inkscape:label="pupil" sodipodi:insensitive="true" />
      <path style="display:none;opacity:1;fill:#ffccaa;fill-opacity:1;stroke:none;stroke-width:1.85575;stroke-opacity:1"
         d="m 150,200 a 25,25 0 0 0 -20.95312,11.37891 h 41.91015 A 25,25 0 0 0 150,200 Z" id="circle41"
         inkscape:label="lid 1/4" sodipodi:insensitive="true" />
      <path style="display:none;opacity:1;fill:#ffccaa;fill-opacity:1;stroke:none;stroke-width:1.85575;stroke-opacity:1"
         d="m 150,200 a 25,25 0 0 0 -24.96484,24.5 h 49.95312 A 25,25 0 0 0 150,200 Z" id="circle62"
         inkscape:label="lid 1/2" sodipodi:insensitive="true" />
      <path style="display:none;opacity:1;fill:#ffccaa;fill-opacity:1;stroke:none;stroke-width:1.85575;stroke-opacity:1"
         d="m 150,200 a 25,25 0 0 0 -25,25 25,25 0 0 0 3.57617,12.79688 h 42.84766 A 25,25 0 0 0 175,225 25,25 0 0 0 150,200 Z"
         id="circle63" inkscape:label="lid 3/4" sodipodi:insensitive="true" />
      <circle
         style="display:none;opacity:1;fill:#ffccaa;fill-opacity:1;stroke:none;stroke-width:1.85575;stroke-opacity:1"
         id="circle64" cx="150" cy="225" r="25" inkscape:label="lid closed" sodipodi:insensitive="true" />
   </g>
   <g inkscape:groupmode="layer" id="g76" inkscape:label="eye right" transform="translate(100)"
      sodipodi:insensitive="true">
      <circle
         style="display:inline;opacity:0.713446;mix-blend-mode:normal;fill:#000000;fill-opacity:0.0922403;stroke:none;stroke-width:2.28033;stroke-opacity:1;filter:url(#filter69)"
         id="circle71" cx="150" cy="225" r="30.719831" inkscape:label="shadow"
         transform="matrix(0.90690327,0,0,0.90690327,13.964509,20.946764)" />
      <circle style="opacity:1;fill:url(#radialGradient76);stroke:none;stroke-width:1.85575;stroke-opacity:1"
         id="circle72" cx="150" cy="225" r="25" inkscape:label="ball" />
      <circle
         style="opacity:1;fill:url(#linearGradient77);fill-opacity:1;fill-rule:evenodd;stroke:none;stroke-width:0.523805;stroke-opacity:1"
         id="circle73" cx="150" cy="225" r="7.0565133" inkscape:label="iris" />
      <circle
         style="opacity:1;fill:#000000;fill-opacity:1;fill-rule:evenodd;stroke:none;stroke-width:0.309215;stroke-opacity:1"
         id="circle74" cx="150" cy="225" r="4.1656394" inkscape:label="pupil" />
      <path style="display:none;opacity:1;fill:#ffccaa;fill-opacity:1;stroke:none;stroke-width:1.85575;stroke-opacity:1"
         d="m 150,200 a 25,25 0 0 0 -20.95312,11.37891 h 41.91015 A 25,25 0 0 0 150,200 Z" id="path74"
         inkscape:label="lid 1/4" />
      <path style="display:none;opacity:1;fill:#ffccaa;fill-opacity:1;stroke:none;stroke-width:1.85575;stroke-opacity:1"
         d="m 150,200 a 25,25 0 0 0 -24.96484,24.5 h 49.95312 A 25,25 0 0 0 150,200 Z" id="path75"
         inkscape:label="lid 1/2" />
      <path style="display:none;opacity:1;fill:#ffccaa;fill-opacity:1;stroke:none;stroke-width:1.85575;stroke-opacity:1"
         d="m 150,200 a 25,25 0 0 0 -25,25 25,25 0 0 0 3.57617,12.79688 h 42.84766 A 25,25 0 0 0 175,225 25,25 0 0 0 150,200 Z"
         id="path76" inkscape:label="lid 3/4" />
      <circle
         style="display:none;opacity:1;fill:#ffccaa;fill-opacity:1;stroke:none;stroke-width:1.85575;stroke-opacity:1"
         id="circle76" cx="150" cy="225" r="25" inkscape:label="lid closed" />
   </g>
   <g inkscape:groupmode="layer" id="layer8" inkscape:label="nose" sodipodi:insensitive="true">
      <path style="fill:none;stroke:#000000;stroke-width:1px;stroke-linecap:butt;stroke-linejoin:miter;stroke-opacity:1"
         d="m 175,275.00977 c 0,0 0,24.99023 25,24.99023" id="path16" inkscape:label="left" />
      <path style="fill:none;stroke:#000000;stroke-width:1px;stroke-linecap:butt;stroke-linejoin:miter;stroke-opacity:1"
         d="m 225,275.00977 c 0,0 0,24.99023 -25,24.99023" id="path16-2" inkscape:label="right" />
   </g>
   <g inkscape:groupmode="layer" id="layer9" inkscape:label="eyebrow left" sodipodi:insensitive="true">
      <path
         style="opacity:0.25437;fill:#000000;fill-opacity:1;fill-rule:nonzero;stroke:none;stroke-width:1.85575;stroke-opacity:1;filter:url(#filter3)"
         d="m 175,187.39008 c -1.80388,-0.58661 -7.04296,-2.79825 -10.8233,-3.51969 -3.95464,-0.7547 -8.15377,-0.79006 -12.43046,-0.78086 -4.56211,0.01 -9.69418,0.78937 -14.14105,0.94938 -3.96201,0.14256 -9.37552,0.0459 -11.25063,0.0551 1.85673,0.26204 7.2338,0.89652 11.14037,1.57224 4.38464,0.7584 9.36464,2.22314 13.88373,2.84827 4.23636,0.58601 8.40188,1.11742 12.42218,0.90308 3.8431,-0.20489 9.33263,-1.68958 11.19916,-2.0275 z"
         id="path2" inkscape:path-effect="#path-effect3" inkscape:original-d="m 175,187.39008 -48.64544,-3.29609"
         sodipodi:nodetypes="cc" transform="matrix(1.0027914,-0.20529773,0.20529773,1.0027914,-39.230296,30.533272)"
         inkscape:label="shadow" />
      <path
         style="opacity:1;fill:url(#radialGradient4);fill-rule:nonzero;stroke:none;stroke-width:1.85575;stroke-opacity:1"
         d="m 175,187.39008 c -1.80388,-0.58661 -7.04296,-2.79825 -10.8233,-3.51969 -3.95464,-0.7547 -8.15377,-0.79006 -12.43046,-0.78086 -4.56211,0.01 -9.69418,0.78937 -14.14105,0.94938 -3.96201,0.14256 -9.37552,0.0459 -11.25063,0.0551 1.85673,0.26204 7.2338,0.89652 11.14037,1.57224 4.38464,0.7584 9.36464,2.22314 13.88373,2.84827 4.23636,0.58601 8.40188,1.11742 12.42218,0.90308 3.8431,-0.20489 9.33263,-1.68958 11.19916,-2.0275 z"
         id="path18" inkscape:path-effect="#path-effect19" inkscape:original-d="m 175,187.39008 -48.64544,-3.29609"
         sodipodi:nodetypes="cc" transform="matrix(1.0027914,-0.20529773,0.20529773,1.0027914,-39.230296,30.533272)"
         inkscape:label="brow" />
   </g>
   <g inkscape:groupmode="layer" id="g8" inkscape:label="eyebrow right" transform="matrix(-1,0,0,1,400.21977,0)"
      sodipodi:insensitive="true">
      <path
         style="opacity:0.25437;fill:#000000;fill-opacity:1;fill-rule:nonzero;stroke:none;stroke-width:1.85575;stroke-opacity:1;filter:url(#filter3)"
         d="m 175,187.39008 c -1.80388,-0.58661 -7.04296,-2.79825 -10.8233,-3.51969 -3.95464,-0.7547 -8.15377,-0.79006 -12.43046,-0.78086 -4.56211,0.01 -9.69418,0.78937 -14.14105,0.94938 -3.96201,0.14256 -9.37552,0.0459 -11.25063,0.0551 1.85673,0.26204 7.2338,0.89652 11.14037,1.57224 4.38464,0.7584 9.36464,2.22314 13.88373,2.84827 4.23636,0.58601 8.40188,1.11742 12.42218,0.90308 3.8431,-0.20489 9.33263,-1.68958 11.19916,-2.0275 z"
         id="path4" inkscape:path-effect="#path-effect9" inkscape:original-d="m 175,187.39008 -48.64544,-3.29609"
         sodipodi:nodetypes="cc" transform="matrix(1.0027914,-0.20529773,0.20529773,1.0027914,-39.230296,30.533272)"
         inkscape:label="shadow" />
      <path
         style="opacity:1;fill:url(#radialGradient11);fill-opacity:1;fill-rule:nonzero;stroke:none;stroke-width:1.85575;stroke-opacity:1"
         d="m 175,187.39008 c -1.80388,-0.58661 -7.04296,-2.79825 -10.8233,-3.51969 -3.95464,-0.7547 -8.15377,-0.79006 -12.43046,-0.78086 -4.56211,0.01 -9.69418,0.78937 -14.14105,0.94938 -3.96201,0.14256 -9.37552,0.0459 -11.25063,0.0551 1.85673,0.26204 7.2338,0.89652 11.14037,1.57224 4.38464,0.7584 9.36464,2.22314 13.88373,2.84827 4.23636,0.58601 8.40188,1.11742 12.42218,0.90308 3.8431,-0.20489 9.33263,-1.68958 11.19916,-2.0275 z"
         id="path8" inkscape:path-effect="#path-effect11" inkscape:original-d="m 175,187.39008 -48.64544,-3.29609"
         sodipodi:nodetypes="cc" transform="matrix(1.0027914,-0.20529773,0.20529773,1.0027914,-39.230296,30.533272)"
         inkscape:label="brow" />
   </g>
   <g inkscape:groupmode="layer" id="layer10" inkscape:label="mouth" style="fill:#000000;fill-opacity:1;stroke:none"
      sodipodi:insensitive="true">
      <path style="opacity:1;fill:#000000;fill-opacity:1;stroke:none;stroke-width:1.85575;stroke-opacity:1"
         d="m 175,329.16667 c -8.33333,4.16666 8.33333,12.5 25.00017,12.49991 16.66683,-8e-5 33.33316,-8.33325 24.9995,-12.49991 C 216.666,325 183.33333,325 175,329.16667 Z"
         id="path22" inkscape:path-effect="#path-effect22"
         inkscape:original-d="m 150,325 c 16.66667,8.33333 33.33333,16.66667 50,25 16.667,-8.3335 33.33333,-16.66667 50,-25 -33.334,0 -66.66667,0 -100,0 z" />
   </g>
   <g inkscape:groupmode="layer" id="layer11" inkscape:label="hair_front" sodipodi:insensitive="true">
      <path
         style="fill:#853500;fill-opacity:1;stroke:none;stroke-width:1px;stroke-linecap:butt;stroke-linejoin:miter;stroke-opacity:1"
         d="M 100,225 C 100,225 39.825096,61.59881 199.99989,75.31389 L 200,111.66351 C 159.38556,107.70726 113.28479,207.23563 100,225 Z"
         id="path38" sodipodi:nodetypes="cccc" />
      <path
         style="fill:#853500;fill-opacity:1;stroke:none;stroke-width:1px;stroke-linecap:butt;stroke-linejoin:miter;stroke-opacity:1"
         d="m 299.99989,225 c 0,0 60.1749,-163.40119 -99.99989,-149.68611 v 36.34962 C 240.61444,107.70726 286.7151,207.23563 299.99989,225 Z"
         id="path39" sodipodi:nodetypes="cccc" />
   </g>
   <g inkscape:groupmode="layer" id="layer12" inkscape:label="hair_back" sodipodi:insensitive="true" />
</svg>